<?xml version="1.0" encoding="UTF-8"?>
<!DOCTYPE svg PUBLIC "-//W3C//DTD SVG 1.1//EN" "http://www.w3.org/Graphics/SVG/1.1/DTD/svg11.dtd">
<svg width="180mm" height="50mm" viewBox="0 0 18000 5000" version="1.1" baseProfile="tiny" xmlns="http://www.w3.org/2000/svg" stroke-width="28.222" stroke-linejoin="round" xml:space="preserve">
 <path fill="rgb(255,255,255)" stroke="none" d="M 9000,5000 L 0,5000 0,0 18000,0 18000,5000 9000,5000 Z"/>
 <path fill="none" stroke="rgb(179,179,179)" stroke-linejoin="round" d="M 6883,4701 L 981,4701 981,299 12784,299 12784,4701 6883,4701 Z"/>
 <path fill="none" stroke="rgb(179,179,179)" stroke-linejoin="round" d="M 12783,4700 L 981,4700"/>
 <path fill="none" stroke="rgb(179,179,179)" stroke-linejoin="round" d="M 12783,4071 L 981,4071"/>
 <path fill="none" stroke="rgb(179,179,179)" stroke-linejoin="round" d="M 12783,3442 L 981,3442"/>
 <path fill="none" stroke="rgb(179,179,179)" stroke-linejoin="round" d="M 12783,2813 L 981,2813"/>
 <path fill="none" stroke="rgb(179,179,179)" stroke-linejoin="round" d="M 12783,2185 L 981,2185"/>
 <path fill="none" stroke="rgb(179,179,179)" stroke-linejoin="round" d="M 12783,1555 L 981,1555"/>
 <path fill="none" stroke="rgb(179,179,179)" stroke-linejoin="round" d="M 12783,926 L 981,926"/>
 <path fill="none" stroke="rgb(179,179,179)" stroke-linejoin="round" d="M 12783,298 L 981,298"/>
 <path fill="none" stroke="rgb(179,179,179)" stroke-linejoin="round" d="M 981,4850 L 981,4700"/>
 <path fill="none" stroke="rgb(179,179,179)" stroke-linejoin="round" d="M 981,4850 L 981,4700"/>
 <path fill="none" stroke="rgb(179,179,179)" stroke-linejoin="round" d="M 12783,4850 L 12783,4700"/>
 <path fill="none" stroke="rgb(179,179,179)" stroke-linejoin="round" d="M 12783,4850 L 12783,4700"/>
 <path fill="none" stroke="rgb(179,179,179)" stroke-linejoin="round" d="M 981,4700 L 12783,4700"/>
 <path fill="none" stroke="rgb(179,179,179)" stroke-linejoin="round" d="M 831,4700 L 981,4700"/>
 <path fill="none" stroke="rgb(179,179,179)" stroke-linejoin="round" d="M 831,4700 L 981,4700"/>
 <path fill="none" stroke="rgb(179,179,179)" stroke-linejoin="round" d="M 831,4071 L 981,4071"/>
 <path fill="none" stroke="rgb(179,179,179)" stroke-linejoin="round" d="M 831,4071 L 981,4071"/>
 <path fill="none" stroke="rgb(179,179,179)" stroke-linejoin="round" d="M 831,3442 L 981,3442"/>
 <path fill="none" stroke="rgb(179,179,179)" stroke-linejoin="round" d="M 831,3442 L 981,3442"/>
 <path fill="none" stroke="rgb(179,179,179)" stroke-linejoin="round" d="M 831,2813 L 981,2813"/>
 <path fill="none" stroke="rgb(179,179,179)" stroke-linejoin="round" d="M 831,2813 L 981,2813"/>
 <path fill="none" stroke="rgb(179,179,179)" stroke-linejoin="round" d="M 831,2185 L 981,2185"/>
 <path fill="none" stroke="rgb(179,179,179)" stroke-linejoin="round" d="M 831,2185 L 981,2185"/>
 <path fill="none" stroke="rgb(179,179,179)" stroke-linejoin="round" d="M 831,1556 L 981,1556"/>
 <path fill="none" stroke="rgb(179,179,179)" stroke-linejoin="round" d="M 831,1556 L 981,1556"/>
 <path fill="none" stroke="rgb(179,179,179)" stroke-linejoin="round" d="M 831,927 L 981,927"/>
 <path fill="none" stroke="rgb(179,179,179)" stroke-linejoin="round" d="M 831,927 L 981,927"/>
 <path fill="none" stroke="rgb(179,179,179)" stroke-linejoin="round" d="M 831,298 L 981,298"/>
 <path fill="none" stroke="rgb(179,179,179)" stroke-linejoin="round" d="M 831,298 L 981,298"/>
 <path fill="none" stroke="rgb(179,179,179)" stroke-linejoin="round" d="M 981,4700 L 981,298"/>
 <path fill="rgb(0,69,134)" stroke="none" d="M 2161,4700 L 4522,4700 4522,3417 2161,3417 2161,4700 Z"/>
 <path fill="rgb(255,66,14)" stroke="none" d="M 4522,4700 L 6883,4700 6883,3724 4522,3724 4522,4700 Z"/>
 <path fill="rgb(255,211,32)" stroke="none" d="M 6882,4700 L 9242,4700 9242,1086 6882,1086 6882,4700 Z"/>
 <path fill="rgb(87,157,28)" stroke="none" d="M 9242,4700 L 11603,4700 11603,4225 9242,4225 9242,4700 Z"/>
 <text class="TextShape"><tspan class="TextParagraph" font-family="Liberation Sans" font-size="353px" font-weight="400"><tspan class="TextPosition" x="546" y="4821"><tspan fill="rgb(0,0,0)" stroke="none">0</tspan></tspan></tspan></text>
 <text class="TextShape"><tspan class="TextParagraph" font-family="Liberation Sans" font-size="353px" font-weight="400"><tspan class="TextPosition" x="361" y="4192"><tspan fill="rgb(0,0,0)" stroke="none">10</tspan></tspan></tspan></text>
 <text class="TextShape"><tspan class="TextParagraph" font-family="Liberation Sans" font-size="353px" font-weight="400"><tspan class="TextPosition" x="361" y="3563"><tspan fill="rgb(0,0,0)" stroke="none">20</tspan></tspan></tspan></text>
 <text class="TextShape"><tspan class="TextParagraph" font-family="Liberation Sans" font-size="353px" font-weight="400"><tspan class="TextPosition" x="361" y="2934"><tspan fill="rgb(0,0,0)" stroke="none">30</tspan></tspan></tspan></text>
 <text class="TextShape"><tspan class="TextParagraph" font-family="Liberation Sans" font-size="353px" font-weight="400"><tspan class="TextPosition" x="361" y="2305"><tspan fill="rgb(0,0,0)" stroke="none">40</tspan></tspan></tspan></text>
 <text class="TextShape"><tspan class="TextParagraph" font-family="Liberation Sans" font-size="353px" font-weight="400"><tspan class="TextPosition" x="361" y="1676"><tspan fill="rgb(0,0,0)" stroke="none">50</tspan></tspan></tspan></text>
 <text class="TextShape"><tspan class="TextParagraph" font-family="Liberation Sans" font-size="353px" font-weight="400"><tspan class="TextPosition" x="361" y="1047"><tspan fill="rgb(0,0,0)" stroke="none">60</tspan></tspan></tspan></text>
 <text class="TextShape"><tspan class="TextParagraph" font-family="Liberation Sans" font-size="353px" font-weight="400"><tspan class="TextPosition" x="361" y="418"><tspan fill="rgb(0,0,0)" stroke="none">70</tspan></tspan></tspan></text>
 <path fill="rgb(0,69,134)" stroke="none" d="M 13366,1858 L 13260,1858 13260,1647 13471,1647 13471,1858 13366,1858 Z"/>
 <path fill="rgb(255,66,14)" stroke="none" d="M 13366,2356 L 13260,2356 13260,2145 13471,2145 13471,2356 13366,2356 Z"/>
 <path fill="rgb(255,211,32)" stroke="none" d="M 13366,2853 L 13260,2853 13260,2642 13471,2642 13471,2853 13366,2853 Z"/>
 <path fill="rgb(87,157,28)" stroke="none" d="M 13366,3351 L 13260,3351 13260,3140 13471,3140 13471,3351 13366,3351 Z"/>
 <text class="TextShape"><tspan class="TextParagraph" font-family="Liberation Sans" font-size="353px" font-weight="400"><tspan class="TextPosition" x="13571" y="1872"><tspan fill="rgb(0,0,0)" stroke="none">semaphore, Posix Threads</tspan></tspan></tspan></text>
 <text class="TextShape"><tspan class="TextParagraph" font-family="Liberation Sans" font-size="353px" font-weight="400"><tspan class="TextPosition" x="13571" y="2370"><tspan fill="rgb(0,0,0)" stroke="none">condition, Posix Threads</tspan></tspan></tspan></text>
 <text class="TextShape"><tspan class="TextParagraph" font-family="Liberation Sans" font-size="353px" font-weight="400"><tspan class="TextPosition" x="13571" y="2867"><tspan fill="rgb(0,0,0)" stroke="none">monitor, Java</tspan></tspan></tspan></text>
 <text class="TextShape"><tspan class="TextParagraph" font-family="Liberation Sans" font-size="353px" font-weight="400"><tspan class="TextPosition" x="13571" y="3365"><tspan fill="rgb(0,0,0)" stroke="none">channels, Go</tspan></tspan></tspan></text>
</svg>