<?xml version="1.0" encoding="UTF-8"?>
<!DOCTYPE svg PUBLIC "-//W3C//DTD SVG 1.1//EN" "http://www.w3.org/Graphics/SVG/1.1/DTD/svg11.dtd">
<svg width="180mm" height="50mm" viewBox="0 0 18000 5000" version="1.1" baseProfile="tiny" xmlns="http://www.w3.org/2000/svg" stroke-width="28.222" stroke-linejoin="round" xml:space="preserve">
 <path fill="rgb(255,255,255)" stroke="none" d="M 9040,5000 L 40,5000 40,0 18040,0 18040,5000 9040,5000 Z"/>
 <path fill="none" stroke="rgb(179,179,179)" stroke-linejoin="round" d="M 7346,4701 L 1021,4701 1021,299 13671,299 13671,4701 7346,4701 Z"/>
 <path fill="none" stroke="rgb(179,179,179)" stroke-linejoin="round" d="M 13670,4700 L 1021,4700"/>
 <path fill="none" stroke="rgb(179,179,179)" stroke-linejoin="round" d="M 13670,4071 L 1021,4071"/>
 <path fill="none" stroke="rgb(179,179,179)" stroke-linejoin="round" d="M 13670,3442 L 1021,3442"/>
 <path fill="none" stroke="rgb(179,179,179)" stroke-linejoin="round" d="M 13670,2812 L 1021,2812"/>
 <path fill="none" stroke="rgb(179,179,179)" stroke-linejoin="round" d="M 13670,2184 L 1021,2184"/>
 <path fill="none" stroke="rgb(179,179,179)" stroke-linejoin="round" d="M 13670,1555 L 1021,1555"/>
 <path fill="none" stroke="rgb(179,179,179)" stroke-linejoin="round" d="M 13670,926 L 1021,926"/>
 <path fill="none" stroke="rgb(179,179,179)" stroke-linejoin="round" d="M 13670,297 L 1021,297"/>
 <path fill="none" stroke="rgb(179,179,179)" stroke-linejoin="round" d="M 1021,4850 L 1021,4700"/>
 <path fill="none" stroke="rgb(179,179,179)" stroke-linejoin="round" d="M 1021,4850 L 1021,4700"/>
 <path fill="none" stroke="rgb(179,179,179)" stroke-linejoin="round" d="M 13670,4850 L 13670,4700"/>
 <path fill="none" stroke="rgb(179,179,179)" stroke-linejoin="round" d="M 13670,4850 L 13670,4700"/>
 <path fill="none" stroke="rgb(179,179,179)" stroke-linejoin="round" d="M 1021,4700 L 13670,4700"/>
 <path fill="none" stroke="rgb(179,179,179)" stroke-linejoin="round" d="M 871,4700 L 1021,4700"/>
 <path fill="none" stroke="rgb(179,179,179)" stroke-linejoin="round" d="M 871,4700 L 1021,4700"/>
 <path fill="none" stroke="rgb(179,179,179)" stroke-linejoin="round" d="M 871,4071 L 1021,4071"/>
 <path fill="none" stroke="rgb(179,179,179)" stroke-linejoin="round" d="M 871,4071 L 1021,4071"/>
 <path fill="none" stroke="rgb(179,179,179)" stroke-linejoin="round" d="M 871,3442 L 1021,3442"/>
 <path fill="none" stroke="rgb(179,179,179)" stroke-linejoin="round" d="M 871,3442 L 1021,3442"/>
 <path fill="none" stroke="rgb(179,179,179)" stroke-linejoin="round" d="M 871,2813 L 1021,2813"/>
 <path fill="none" stroke="rgb(179,179,179)" stroke-linejoin="round" d="M 871,2813 L 1021,2813"/>
 <path fill="none" stroke="rgb(179,179,179)" stroke-linejoin="round" d="M 871,2184 L 1021,2184"/>
 <path fill="none" stroke="rgb(179,179,179)" stroke-linejoin="round" d="M 871,2184 L 1021,2184"/>
 <path fill="none" stroke="rgb(179,179,179)" stroke-linejoin="round" d="M 871,1555 L 1021,1555"/>
 <path fill="none" stroke="rgb(179,179,179)" stroke-linejoin="round" d="M 871,1555 L 1021,1555"/>
 <path fill="none" stroke="rgb(179,179,179)" stroke-linejoin="round" d="M 871,926 L 1021,926"/>
 <path fill="none" stroke="rgb(179,179,179)" stroke-linejoin="round" d="M 871,926 L 1021,926"/>
 <path fill="none" stroke="rgb(179,179,179)" stroke-linejoin="round" d="M 871,297 L 1021,297"/>
 <path fill="none" stroke="rgb(179,179,179)" stroke-linejoin="round" d="M 871,297 L 1021,297"/>
 <path fill="none" stroke="rgb(179,179,179)" stroke-linejoin="round" d="M 1021,4700 L 1021,297"/>
 <path fill="rgb(0,69,134)" stroke="none" d="M 2286,4700 L 4816,4700 4816,1960 2286,1960 2286,4700 Z"/>
 <path fill="rgb(255,66,14)" stroke="none" d="M 4816,4700 L 7346,4700 7346,2998 4816,2998 4816,4700 Z"/>
 <path fill="rgb(255,211,32)" stroke="none" d="M 7346,4700 L 9875,4700 9875,939 7346,939 7346,4700 Z"/>
 <path fill="rgb(87,157,28)" stroke="none" d="M 9875,4700 L 12405,4700 12405,1765 9875,1765 9875,4700 Z"/>
 <text class="TextShape"><tspan class="TextParagraph" font-family="Liberation Sans" font-size="353px" font-weight="400"><tspan class="TextPosition" x="586" y="4821"><tspan fill="rgb(0,0,0)" stroke="none">0</tspan></tspan></tspan></text>
 <text class="TextShape"><tspan class="TextParagraph" font-family="Liberation Sans" font-size="353px" font-weight="400"><tspan class="TextPosition" x="586" y="4192"><tspan fill="rgb(0,0,0)" stroke="none">2</tspan></tspan></tspan></text>
 <text class="TextShape"><tspan class="TextParagraph" font-family="Liberation Sans" font-size="353px" font-weight="400"><tspan class="TextPosition" x="586" y="3563"><tspan fill="rgb(0,0,0)" stroke="none">4</tspan></tspan></tspan></text>
 <text class="TextShape"><tspan class="TextParagraph" font-family="Liberation Sans" font-size="353px" font-weight="400"><tspan class="TextPosition" x="586" y="2934"><tspan fill="rgb(0,0,0)" stroke="none">6</tspan></tspan></tspan></text>
 <text class="TextShape"><tspan class="TextParagraph" font-family="Liberation Sans" font-size="353px" font-weight="400"><tspan class="TextPosition" x="586" y="2304"><tspan fill="rgb(0,0,0)" stroke="none">8</tspan></tspan></tspan></text>
 <text class="TextShape"><tspan class="TextParagraph" font-family="Liberation Sans" font-size="353px" font-weight="400"><tspan class="TextPosition" x="401" y="1675"><tspan fill="rgb(0,0,0)" stroke="none">10</tspan></tspan></tspan></text>
 <text class="TextShape"><tspan class="TextParagraph" font-family="Liberation Sans" font-size="353px" font-weight="400"><tspan class="TextPosition" x="401" y="1046"><tspan fill="rgb(0,0,0)" stroke="none">12</tspan></tspan></tspan></text>
 <text class="TextShape"><tspan class="TextParagraph" font-family="Liberation Sans" font-size="353px" font-weight="400"><tspan class="TextPosition" x="401" y="417"><tspan fill="rgb(0,0,0)" stroke="none">14</tspan></tspan></tspan></text>
 <path fill="rgb(0,69,134)" stroke="none" d="M 14253,1858 L 14147,1858 14147,1647 14358,1647 14358,1858 14253,1858 Z"/>
 <path fill="rgb(255,66,14)" stroke="none" d="M 14253,2356 L 14147,2356 14147,2145 14358,2145 14358,2356 14253,2356 Z"/>
 <path fill="rgb(255,211,32)" stroke="none" d="M 14253,2853 L 14147,2853 14147,2642 14358,2642 14358,2853 14253,2853 Z"/>
 <path fill="rgb(87,157,28)" stroke="none" d="M 14253,3351 L 14147,3351 14147,3140 14358,3140 14358,3351 14253,3351 Z"/>
 <text class="TextShape"><tspan class="TextParagraph" font-family="Liberation Sans" font-size="353px" font-weight="400"><tspan class="TextPosition" x="14458" y="1872"><tspan fill="rgb(0,0,0)" stroke="none">mutex Posix Threads</tspan></tspan></tspan></text>
 <text class="TextShape"><tspan class="TextParagraph" font-family="Liberation Sans" font-size="353px" font-weight="400"><tspan class="TextPosition" x="14458" y="2370"><tspan fill="rgb(0,0,0)" stroke="none">monitor Java</tspan></tspan></tspan></text>
 <text class="TextShape"><tspan class="TextParagraph" font-family="Liberation Sans" font-size="353px" font-weight="400"><tspan class="TextPosition" x="14458" y="2867"><tspan fill="rgb(0,0,0)" stroke="none">sync/mutex Go</tspan></tspan></tspan></text>
 <text class="TextShape"><tspan class="TextParagraph" font-family="Liberation Sans" font-size="353px" font-weight="400"><tspan class="TextPosition" x="14458" y="3365"><tspan fill="rgb(0,0,0)" stroke="none">messages Go</tspan></tspan></tspan></text>
</svg>