<?xml version="1.0" encoding="UTF-8"?>
<!DOCTYPE svg PUBLIC "-//W3C//DTD SVG 1.1//EN" "http://www.w3.org/Graphics/SVG/1.1/DTD/svg11.dtd">
<svg width="180mm" height="50mm" viewBox="0 0 18000 5000" version="1.1" baseProfile="tiny" xmlns="http://www.w3.org/2000/svg" stroke-width="28.222" stroke-linejoin="round" xml:space="preserve">
 <path fill="rgb(255,255,255)" stroke="none" d="M 9000,5000 L 0,5000 0,0 18000,0 18000,5000 9000,5000 Z"/>
 <path fill="none" stroke="rgb(179,179,179)" stroke-linejoin="round" d="M 6817,4701 L 981,4701 981,299 12652,299 12652,4701 6817,4701 Z"/>
 <path fill="none" stroke="rgb(179,179,179)" stroke-linejoin="round" d="M 12652,4700 L 981,4700"/>
 <path fill="none" stroke="rgb(179,179,179)" stroke-linejoin="round" d="M 12652,4071 L 981,4071"/>
 <path fill="none" stroke="rgb(179,179,179)" stroke-linejoin="round" d="M 12652,3442 L 981,3442"/>
 <path fill="none" stroke="rgb(179,179,179)" stroke-linejoin="round" d="M 12652,2813 L 981,2813"/>
 <path fill="none" stroke="rgb(179,179,179)" stroke-linejoin="round" d="M 12652,2185 L 981,2185"/>
 <path fill="none" stroke="rgb(179,179,179)" stroke-linejoin="round" d="M 12652,1555 L 981,1555"/>
 <path fill="none" stroke="rgb(179,179,179)" stroke-linejoin="round" d="M 12652,926 L 981,926"/>
 <path fill="none" stroke="rgb(179,179,179)" stroke-linejoin="round" d="M 12652,298 L 981,298"/>
 <path fill="none" stroke="rgb(179,179,179)" stroke-linejoin="round" d="M 981,4850 L 981,4700"/>
 <path fill="none" stroke="rgb(179,179,179)" stroke-linejoin="round" d="M 981,4850 L 981,4700"/>
 <path fill="none" stroke="rgb(179,179,179)" stroke-linejoin="round" d="M 12652,4850 L 12652,4700"/>
 <path fill="none" stroke="rgb(179,179,179)" stroke-linejoin="round" d="M 12652,4850 L 12652,4700"/>
 <path fill="none" stroke="rgb(179,179,179)" stroke-linejoin="round" d="M 981,4700 L 12652,4700"/>
 <path fill="none" stroke="rgb(179,179,179)" stroke-linejoin="round" d="M 831,4700 L 981,4700"/>
 <path fill="none" stroke="rgb(179,179,179)" stroke-linejoin="round" d="M 831,4700 L 981,4700"/>
 <path fill="none" stroke="rgb(179,179,179)" stroke-linejoin="round" d="M 831,4071 L 981,4071"/>
 <path fill="none" stroke="rgb(179,179,179)" stroke-linejoin="round" d="M 831,4071 L 981,4071"/>
 <path fill="none" stroke="rgb(179,179,179)" stroke-linejoin="round" d="M 831,3442 L 981,3442"/>
 <path fill="none" stroke="rgb(179,179,179)" stroke-linejoin="round" d="M 831,3442 L 981,3442"/>
 <path fill="none" stroke="rgb(179,179,179)" stroke-linejoin="round" d="M 831,2813 L 981,2813"/>
 <path fill="none" stroke="rgb(179,179,179)" stroke-linejoin="round" d="M 831,2813 L 981,2813"/>
 <path fill="none" stroke="rgb(179,179,179)" stroke-linejoin="round" d="M 831,2185 L 981,2185"/>
 <path fill="none" stroke="rgb(179,179,179)" stroke-linejoin="round" d="M 831,2185 L 981,2185"/>
 <path fill="none" stroke="rgb(179,179,179)" stroke-linejoin="round" d="M 831,1556 L 981,1556"/>
 <path fill="none" stroke="rgb(179,179,179)" stroke-linejoin="round" d="M 831,1556 L 981,1556"/>
 <path fill="none" stroke="rgb(179,179,179)" stroke-linejoin="round" d="M 831,927 L 981,927"/>
 <path fill="none" stroke="rgb(179,179,179)" stroke-linejoin="round" d="M 831,927 L 981,927"/>
 <path fill="none" stroke="rgb(179,179,179)" stroke-linejoin="round" d="M 831,298 L 981,298"/>
 <path fill="none" stroke="rgb(179,179,179)" stroke-linejoin="round" d="M 831,298 L 981,298"/>
 <path fill="none" stroke="rgb(179,179,179)" stroke-linejoin="round" d="M 981,4700 L 981,298"/>
 <path fill="rgb(0,69,134)" stroke="none" d="M 2148,4700 L 4482,4700 4482,3417 2148,3417 2148,4700 Z"/>
 <path fill="rgb(255,66,14)" stroke="none" d="M 4482,4700 L 6817,4700 6817,3724 4482,3724 4482,4700 Z"/>
 <path fill="rgb(255,211,32)" stroke="none" d="M 6817,4700 L 9150,4700 9150,1086 6817,1086 6817,4700 Z"/>
 <path fill="rgb(87,157,28)" stroke="none" d="M 9150,4700 L 11484,4700 11484,4225 9150,4225 9150,4700 Z"/>
 <text class="TextShape"><tspan class="TextParagraph" font-family="Liberation Sans" font-size="353px" font-weight="400"><tspan class="TextPosition" x="546" y="4821"><tspan fill="rgb(0,0,0)" stroke="none">0</tspan></tspan></tspan></text>
 <text class="TextShape"><tspan class="TextParagraph" font-family="Liberation Sans" font-size="353px" font-weight="400"><tspan class="TextPosition" x="361" y="4192"><tspan fill="rgb(0,0,0)" stroke="none">10</tspan></tspan></tspan></text>
 <text class="TextShape"><tspan class="TextParagraph" font-family="Liberation Sans" font-size="353px" font-weight="400"><tspan class="TextPosition" x="361" y="3563"><tspan fill="rgb(0,0,0)" stroke="none">20</tspan></tspan></tspan></text>
 <text class="TextShape"><tspan class="TextParagraph" font-family="Liberation Sans" font-size="353px" font-weight="400"><tspan class="TextPosition" x="361" y="2934"><tspan fill="rgb(0,0,0)" stroke="none">30</tspan></tspan></tspan></text>
 <text class="TextShape"><tspan class="TextParagraph" font-family="Liberation Sans" font-size="353px" font-weight="400"><tspan class="TextPosition" x="361" y="2305"><tspan fill="rgb(0,0,0)" stroke="none">40</tspan></tspan></tspan></text>
 <text class="TextShape"><tspan class="TextParagraph" font-family="Liberation Sans" font-size="353px" font-weight="400"><tspan class="TextPosition" x="361" y="1676"><tspan fill="rgb(0,0,0)" stroke="none">50</tspan></tspan></tspan></text>
 <text class="TextShape"><tspan class="TextParagraph" font-family="Liberation Sans" font-size="353px" font-weight="400"><tspan class="TextPosition" x="361" y="1047"><tspan fill="rgb(0,0,0)" stroke="none">60</tspan></tspan></tspan></text>
 <text class="TextShape"><tspan class="TextParagraph" font-family="Liberation Sans" font-size="353px" font-weight="400"><tspan class="TextPosition" x="361" y="418"><tspan fill="rgb(0,0,0)" stroke="none">70</tspan></tspan></tspan></text>
 <path fill="rgb(0,69,134)" stroke="none" d="M 13234,1858 L 13128,1858 13128,1647 13339,1647 13339,1858 13234,1858 Z"/>
 <path fill="rgb(255,66,14)" stroke="none" d="M 13234,2356 L 13128,2356 13128,2145 13339,2145 13339,2356 13234,2356 Z"/>
 <path fill="rgb(255,211,32)" stroke="none" d="M 13234,2853 L 13128,2853 13128,2642 13339,2642 13339,2853 13234,2853 Z"/>
 <path fill="rgb(87,157,28)" stroke="none" d="M 13234,3351 L 13128,3351 13128,3140 13339,3140 13339,3351 13234,3351 Z"/>
 <text class="TextShape"><tspan class="TextParagraph" font-family="Liberation Sans" font-size="353px" font-weight="400"><tspan class="TextPosition" x="13439" y="1872"><tspan fill="rgb(0,0,0)" stroke="none">semaphore, POSIX threads</tspan></tspan></tspan></text>
 <text class="TextShape"><tspan class="TextParagraph" font-family="Liberation Sans" font-size="353px" font-weight="400"><tspan class="TextPosition" x="13439" y="2370"><tspan fill="rgb(0,0,0)" stroke="none">condition, Posix Threads</tspan></tspan></tspan></text>
 <text class="TextShape"><tspan class="TextParagraph" font-family="Liberation Sans" font-size="353px" font-weight="400"><tspan class="TextPosition" x="13439" y="2867"><tspan fill="rgb(0,0,0)" stroke="none">monitor, Java</tspan></tspan></tspan></text>
 <text class="TextShape"><tspan class="TextParagraph" font-family="Liberation Sans" font-size="353px" font-weight="400"><tspan class="TextPosition" x="13439" y="3365"><tspan fill="rgb(0,0,0)" stroke="none">channels, Go</tspan></tspan></tspan></text>
</svg>