<?xml version="1.0" encoding="UTF-8"?>
<!DOCTYPE svg PUBLIC "-//W3C//DTD SVG 1.1//EN" "http://www.w3.org/Graphics/SVG/1.1/DTD/svg11.dtd">
<svg width="180mm" height="50mm" viewBox="0 0 18000 5000" version="1.1" baseProfile="tiny" xmlns="http://www.w3.org/2000/svg" stroke-width="28.222" stroke-linejoin="round" xml:space="preserve">
 <path fill="rgb(255,255,255)" stroke="none" d="M 9040,5000 L 40,5000 40,0 18040,0 18040,5000 9040,5000 Z"/>
 <path fill="none" stroke="rgb(179,179,179)" stroke-linejoin="round" d="M 7889,4253 L 836,4253 836,299 14941,299 14941,4253 7889,4253 Z"/>
 <path fill="none" stroke="rgb(179,179,179)" stroke-linejoin="round" d="M 14941,4252 L 836,4252"/>
 <path fill="none" stroke="rgb(179,179,179)" stroke-linejoin="round" d="M 14941,3461 L 836,3461"/>
 <path fill="none" stroke="rgb(179,179,179)" stroke-linejoin="round" d="M 14941,2670 L 836,2670"/>
 <path fill="none" stroke="rgb(179,179,179)" stroke-linejoin="round" d="M 14941,1880 L 836,1880"/>
 <path fill="none" stroke="rgb(179,179,179)" stroke-linejoin="round" d="M 14941,1089 L 836,1089"/>
 <path fill="none" stroke="rgb(179,179,179)" stroke-linejoin="round" d="M 14941,298 L 836,298"/>
 <path fill="none" stroke="rgb(179,179,179)" stroke-linejoin="round" d="M 836,4402 L 836,4252"/>
 <path fill="none" stroke="rgb(179,179,179)" stroke-linejoin="round" d="M 836,4402 L 836,4252"/>
 <path fill="none" stroke="rgb(179,179,179)" stroke-linejoin="round" d="M 7889,4402 L 7889,4252"/>
 <path fill="none" stroke="rgb(179,179,179)" stroke-linejoin="round" d="M 7889,4402 L 7889,4252"/>
 <path fill="none" stroke="rgb(179,179,179)" stroke-linejoin="round" d="M 14941,4402 L 14941,4252"/>
 <path fill="none" stroke="rgb(179,179,179)" stroke-linejoin="round" d="M 14941,4402 L 14941,4252"/>
 <path fill="none" stroke="rgb(179,179,179)" stroke-linejoin="round" d="M 836,4252 L 14941,4252"/>
 <path fill="none" stroke="rgb(179,179,179)" stroke-linejoin="round" d="M 686,4252 L 836,4252"/>
 <path fill="none" stroke="rgb(179,179,179)" stroke-linejoin="round" d="M 686,4252 L 836,4252"/>
 <path fill="none" stroke="rgb(179,179,179)" stroke-linejoin="round" d="M 686,3461 L 836,3461"/>
 <path fill="none" stroke="rgb(179,179,179)" stroke-linejoin="round" d="M 686,3461 L 836,3461"/>
 <path fill="none" stroke="rgb(179,179,179)" stroke-linejoin="round" d="M 686,2670 L 836,2670"/>
 <path fill="none" stroke="rgb(179,179,179)" stroke-linejoin="round" d="M 686,2670 L 836,2670"/>
 <path fill="none" stroke="rgb(179,179,179)" stroke-linejoin="round" d="M 686,1879 L 836,1879"/>
 <path fill="none" stroke="rgb(179,179,179)" stroke-linejoin="round" d="M 686,1879 L 836,1879"/>
 <path fill="none" stroke="rgb(179,179,179)" stroke-linejoin="round" d="M 686,1089 L 836,1089"/>
 <path fill="none" stroke="rgb(179,179,179)" stroke-linejoin="round" d="M 686,1089 L 836,1089"/>
 <path fill="none" stroke="rgb(179,179,179)" stroke-linejoin="round" d="M 686,298 L 836,298"/>
 <path fill="none" stroke="rgb(179,179,179)" stroke-linejoin="round" d="M 686,298 L 836,298"/>
 <path fill="none" stroke="rgb(179,179,179)" stroke-linejoin="round" d="M 836,4252 L 836,298"/>
 <path fill="rgb(0,69,134)" stroke="none" d="M 8770,4252 L 10532,4252 10532,3451 8770,3451 8770,4252 Z"/>
 <path fill="rgb(0,69,134)" stroke="none" d="M 1717,4252 L 3480,4252 3480,2911 1717,2911 1717,4252 Z"/>
 <path fill="rgb(255,66,14)" stroke="none" d="M 10532,4252 L 12296,4252 12296,3668 10532,3668 10532,4252 Z"/>
 <path fill="rgb(255,66,14)" stroke="none" d="M 3480,4252 L 5244,4252 5244,3181 3480,3181 3480,4252 Z"/>
 <path fill="rgb(255,211,32)" stroke="none" d="M 12296,4252 L 14059,4252 14059,1339 12296,1339 12296,4252 Z"/>
 <path fill="rgb(255,211,32)" stroke="none" d="M 5244,4252 L 7007,4252 7007,829 5244,829 5244,4252 Z"/>
 <text class="TextShape"><tspan class="TextParagraph" font-family="Liberation Sans" font-size="353px" font-weight="400"><tspan class="TextPosition" x="4005" y="4820"><tspan fill="rgb(0,0,0)" stroke="none">CPU</tspan></tspan></tspan></text>
 <text class="TextShape"><tspan class="TextParagraph" font-family="Liberation Sans" font-size="353px" font-weight="400"><tspan class="TextPosition" x="11005" y="4820"><tspan fill="rgb(0,0,0)" stroke="none">clock</tspan></tspan></tspan></text>
 <text class="TextShape"><tspan class="TextParagraph" font-family="Liberation Sans" font-size="353px" font-weight="400"><tspan class="TextPosition" x="401" y="4373"><tspan fill="rgb(0,0,0)" stroke="none">0</tspan></tspan></tspan></text>
 <text class="TextShape"><tspan class="TextParagraph" font-family="Liberation Sans" font-size="353px" font-weight="400"><tspan class="TextPosition" x="401" y="3582"><tspan fill="rgb(0,0,0)" stroke="none">1</tspan></tspan></tspan></text>
 <text class="TextShape"><tspan class="TextParagraph" font-family="Liberation Sans" font-size="353px" font-weight="400"><tspan class="TextPosition" x="401" y="2791"><tspan fill="rgb(0,0,0)" stroke="none">2</tspan></tspan></tspan></text>
 <text class="TextShape"><tspan class="TextParagraph" font-family="Liberation Sans" font-size="353px" font-weight="400"><tspan class="TextPosition" x="401" y="1999"><tspan fill="rgb(0,0,0)" stroke="none">3</tspan></tspan></tspan></text>
 <text class="TextShape"><tspan class="TextParagraph" font-family="Liberation Sans" font-size="353px" font-weight="400"><tspan class="TextPosition" x="401" y="1209"><tspan fill="rgb(0,0,0)" stroke="none">4</tspan></tspan></tspan></text>
 <text class="TextShape"><tspan class="TextParagraph" font-family="Liberation Sans" font-size="353px" font-weight="400"><tspan class="TextPosition" x="401" y="418"><tspan fill="rgb(0,0,0)" stroke="none">5</tspan></tspan></tspan></text>
 <path fill="rgb(0,69,134)" stroke="none" d="M 15523,2107 L 15417,2107 15417,1896 15628,1896 15628,2107 15523,2107 Z"/>
 <path fill="rgb(255,66,14)" stroke="none" d="M 15523,2604 L 15417,2604 15417,2394 15628,2394 15628,2604 15523,2604 Z"/>
 <path fill="rgb(255,211,32)" stroke="none" d="M 15523,3102 L 15417,3102 15417,2891 15628,2891 15628,3102 15523,3102 Z"/>
 <text class="TextShape"><tspan class="TextParagraph" font-family="Liberation Sans" font-size="353px" font-weight="400"><tspan class="TextPosition" x="15728" y="2121"><tspan fill="rgb(0,0,0)" stroke="none">monitor Java</tspan></tspan></tspan></text>
 <text class="TextShape"><tspan class="TextParagraph" font-family="Liberation Sans" font-size="353px" font-weight="400"><tspan class="TextPosition" x="15728" y="2618"><tspan fill="rgb(0,0,0)" stroke="none">simple</tspan></tspan></tspan></text>
 <text class="TextShape"><tspan class="TextParagraph" font-family="Liberation Sans" font-size="353px" font-weight="400"><tspan class="TextPosition" x="15728" y="3116"><tspan fill="rgb(0,0,0)" stroke="none">provider</tspan></tspan></tspan></text>
</svg>