<?xml version="1.0" encoding="UTF-8"?>
<!DOCTYPE svg PUBLIC "-//W3C//DTD SVG 1.1//EN" "http://www.w3.org/Graphics/SVG/1.1/DTD/svg11.dtd">
<svg width="180mm" height="50mm" viewBox="0 0 18000 5000" version="1.1" baseProfile="tiny" xmlns="http://www.w3.org/2000/svg" stroke-width="28.222" stroke-linejoin="round" xml:space="preserve">
 <path fill="rgb(255,255,255)" stroke="none" d="M 9000,5000 L 0,5000 0,0 18000,0 18000,5000 9000,5000 Z"/>
 <path fill="none" stroke="rgb(179,179,179)" stroke-linejoin="round" d="M 7399,4701 L 1167,4701 1167,299 13631,299 13631,4701 7399,4701 Z"/>
 <path fill="none" stroke="rgb(179,179,179)" stroke-linejoin="round" d="M 13631,4700 L 1167,4700"/>
 <path fill="none" stroke="rgb(179,179,179)" stroke-linejoin="round" d="M 13631,4259 L 1167,4259"/>
 <path fill="none" stroke="rgb(179,179,179)" stroke-linejoin="round" d="M 13631,3819 L 1167,3819"/>
 <path fill="none" stroke="rgb(179,179,179)" stroke-linejoin="round" d="M 13631,3379 L 1167,3379"/>
 <path fill="none" stroke="rgb(179,179,179)" stroke-linejoin="round" d="M 13631,2938 L 1167,2938"/>
 <path fill="none" stroke="rgb(179,179,179)" stroke-linejoin="round" d="M 13631,2499 L 1167,2499"/>
 <path fill="none" stroke="rgb(179,179,179)" stroke-linejoin="round" d="M 13631,2059 L 1167,2059"/>
 <path fill="none" stroke="rgb(179,179,179)" stroke-linejoin="round" d="M 13631,1618 L 1167,1618"/>
 <path fill="none" stroke="rgb(179,179,179)" stroke-linejoin="round" d="M 13631,1178 L 1167,1178"/>
 <path fill="none" stroke="rgb(179,179,179)" stroke-linejoin="round" d="M 13631,738 L 1167,738"/>
 <path fill="none" stroke="rgb(179,179,179)" stroke-linejoin="round" d="M 13631,298 L 1167,298"/>
 <path fill="none" stroke="rgb(179,179,179)" stroke-linejoin="round" d="M 1167,4850 L 1167,4700"/>
 <path fill="none" stroke="rgb(179,179,179)" stroke-linejoin="round" d="M 1167,4850 L 1167,4700"/>
 <path fill="none" stroke="rgb(179,179,179)" stroke-linejoin="round" d="M 13631,4850 L 13631,4700"/>
 <path fill="none" stroke="rgb(179,179,179)" stroke-linejoin="round" d="M 13631,4850 L 13631,4700"/>
 <path fill="none" stroke="rgb(179,179,179)" stroke-linejoin="round" d="M 1167,4700 L 13631,4700"/>
 <path fill="none" stroke="rgb(179,179,179)" stroke-linejoin="round" d="M 1017,4700 L 1167,4700"/>
 <path fill="none" stroke="rgb(179,179,179)" stroke-linejoin="round" d="M 1017,4700 L 1167,4700"/>
 <path fill="none" stroke="rgb(179,179,179)" stroke-linejoin="round" d="M 1017,4259 L 1167,4259"/>
 <path fill="none" stroke="rgb(179,179,179)" stroke-linejoin="round" d="M 1017,4259 L 1167,4259"/>
 <path fill="none" stroke="rgb(179,179,179)" stroke-linejoin="round" d="M 1017,3819 L 1167,3819"/>
 <path fill="none" stroke="rgb(179,179,179)" stroke-linejoin="round" d="M 1017,3819 L 1167,3819"/>
 <path fill="none" stroke="rgb(179,179,179)" stroke-linejoin="round" d="M 1017,3379 L 1167,3379"/>
 <path fill="none" stroke="rgb(179,179,179)" stroke-linejoin="round" d="M 1017,3379 L 1167,3379"/>
 <path fill="none" stroke="rgb(179,179,179)" stroke-linejoin="round" d="M 1017,2938 L 1167,2938"/>
 <path fill="none" stroke="rgb(179,179,179)" stroke-linejoin="round" d="M 1017,2938 L 1167,2938"/>
 <path fill="none" stroke="rgb(179,179,179)" stroke-linejoin="round" d="M 1017,2499 L 1167,2499"/>
 <path fill="none" stroke="rgb(179,179,179)" stroke-linejoin="round" d="M 1017,2499 L 1167,2499"/>
 <path fill="none" stroke="rgb(179,179,179)" stroke-linejoin="round" d="M 1017,2059 L 1167,2059"/>
 <path fill="none" stroke="rgb(179,179,179)" stroke-linejoin="round" d="M 1017,2059 L 1167,2059"/>
 <path fill="none" stroke="rgb(179,179,179)" stroke-linejoin="round" d="M 1017,1618 L 1167,1618"/>
 <path fill="none" stroke="rgb(179,179,179)" stroke-linejoin="round" d="M 1017,1618 L 1167,1618"/>
 <path fill="none" stroke="rgb(179,179,179)" stroke-linejoin="round" d="M 1017,1178 L 1167,1178"/>
 <path fill="none" stroke="rgb(179,179,179)" stroke-linejoin="round" d="M 1017,1178 L 1167,1178"/>
 <path fill="none" stroke="rgb(179,179,179)" stroke-linejoin="round" d="M 1017,738 L 1167,738"/>
 <path fill="none" stroke="rgb(179,179,179)" stroke-linejoin="round" d="M 1017,738 L 1167,738"/>
 <path fill="none" stroke="rgb(179,179,179)" stroke-linejoin="round" d="M 1017,298 L 1167,298"/>
 <path fill="none" stroke="rgb(179,179,179)" stroke-linejoin="round" d="M 1017,298 L 1167,298"/>
 <path fill="none" stroke="rgb(179,179,179)" stroke-linejoin="round" d="M 1167,4700 L 1167,298"/>
 <path fill="rgb(0,69,134)" stroke="none" d="M 2413,4700 L 4906,4700 4906,3851 2413,3851 2413,4700 Z"/>
 <path fill="rgb(255,66,14)" stroke="none" d="M 4906,4700 L 7399,4700 7399,3075 4906,3075 4906,4700 Z"/>
 <path fill="rgb(255,211,32)" stroke="none" d="M 7399,4700 L 9891,4700 9891,3328 7399,3328 7399,4700 Z"/>
 <path fill="rgb(87,157,28)" stroke="none" d="M 9891,4700 L 12384,4700 12384,851 9891,851 9891,4700 Z"/>
 <text class="TextShape"><tspan class="TextParagraph" font-family="Liberation Sans" font-size="353px" font-weight="400"><tspan class="TextPosition" x="732" y="4821"><tspan fill="rgb(0,0,0)" stroke="none">0</tspan></tspan></tspan></text>
 <text class="TextShape"><tspan class="TextParagraph" font-family="Liberation Sans" font-size="353px" font-weight="400"><tspan class="TextPosition" x="547" y="4380"><tspan fill="rgb(0,0,0)" stroke="none">20</tspan></tspan></tspan></text>
 <text class="TextShape"><tspan class="TextParagraph" font-family="Liberation Sans" font-size="353px" font-weight="400"><tspan class="TextPosition" x="547" y="3940"><tspan fill="rgb(0,0,0)" stroke="none">40</tspan></tspan></tspan></text>
 <text class="TextShape"><tspan class="TextParagraph" font-family="Liberation Sans" font-size="353px" font-weight="400"><tspan class="TextPosition" x="547" y="3500"><tspan fill="rgb(0,0,0)" stroke="none">60</tspan></tspan></tspan></text>
 <text class="TextShape"><tspan class="TextParagraph" font-family="Liberation Sans" font-size="353px" font-weight="400"><tspan class="TextPosition" x="547" y="3059"><tspan fill="rgb(0,0,0)" stroke="none">80</tspan></tspan></tspan></text>
 <text class="TextShape"><tspan class="TextParagraph" font-family="Liberation Sans" font-size="353px" font-weight="400"><tspan class="TextPosition" x="361" y="2619"><tspan fill="rgb(0,0,0)" stroke="none">100</tspan></tspan></tspan></text>
 <text class="TextShape"><tspan class="TextParagraph" font-family="Liberation Sans" font-size="353px" font-weight="400"><tspan class="TextPosition" x="361" y="2179"><tspan fill="rgb(0,0,0)" stroke="none">120</tspan></tspan></tspan></text>
 <text class="TextShape"><tspan class="TextParagraph" font-family="Liberation Sans" font-size="353px" font-weight="400"><tspan class="TextPosition" x="361" y="1738"><tspan fill="rgb(0,0,0)" stroke="none">140</tspan></tspan></tspan></text>
 <text class="TextShape"><tspan class="TextParagraph" font-family="Liberation Sans" font-size="353px" font-weight="400"><tspan class="TextPosition" x="361" y="1298"><tspan fill="rgb(0,0,0)" stroke="none">160</tspan></tspan></tspan></text>
 <text class="TextShape"><tspan class="TextParagraph" font-family="Liberation Sans" font-size="353px" font-weight="400"><tspan class="TextPosition" x="361" y="858"><tspan fill="rgb(0,0,0)" stroke="none">180</tspan></tspan></tspan></text>
 <text class="TextShape"><tspan class="TextParagraph" font-family="Liberation Sans" font-size="353px" font-weight="400"><tspan class="TextPosition" x="361" y="418"><tspan fill="rgb(0,0,0)" stroke="none">200</tspan></tspan></tspan></text>
 <path fill="rgb(0,69,134)" stroke="none" d="M 14213,1858 L 14107,1858 14107,1647 14318,1647 14318,1858 14213,1858 Z"/>
 <path fill="rgb(255,66,14)" stroke="none" d="M 14213,2356 L 14107,2356 14107,2145 14318,2145 14318,2356 14213,2356 Z"/>
 <path fill="rgb(255,211,32)" stroke="none" d="M 14213,2853 L 14107,2853 14107,2642 14318,2642 14318,2853 14213,2853 Z"/>
 <path fill="rgb(87,157,28)" stroke="none" d="M 14213,3351 L 14107,3351 14107,3140 14318,3140 14318,3351 14213,3351 Z"/>
 <text class="TextShape"><tspan class="TextParagraph" font-family="Liberation Sans" font-size="353px" font-weight="400"><tspan class="TextPosition" x="14418" y="1872"><tspan fill="rgb(0,0,0)" stroke="none">mutex Posix Threads</tspan></tspan></tspan></text>
 <text class="TextShape"><tspan class="TextParagraph" font-family="Liberation Sans" font-size="353px" font-weight="400"><tspan class="TextPosition" x="14418" y="2370"><tspan fill="rgb(0,0,0)" stroke="none">monitor Java</tspan></tspan></tspan></text>
 <text class="TextShape"><tspan class="TextParagraph" font-family="Liberation Sans" font-size="353px" font-weight="400"><tspan class="TextPosition" x="14418" y="2867"><tspan fill="rgb(0,0,0)" stroke="none">sync/mutex Go</tspan></tspan></tspan></text>
 <text class="TextShape"><tspan class="TextParagraph" font-family="Liberation Sans" font-size="353px" font-weight="400"><tspan class="TextPosition" x="14418" y="3365"><tspan fill="rgb(0,0,0)" stroke="none">messages Go</tspan></tspan></tspan></text>
</svg>