<?xml version="1.0" encoding="UTF-8"?>
<!DOCTYPE svg PUBLIC "-//W3C//DTD SVG 1.1//EN" "http://www.w3.org/Graphics/SVG/1.1/DTD/svg11.dtd">
<svg width="180mm" height="50mm" viewBox="0 0 18000 5000" version="1.1" baseProfile="tiny" xmlns="http://www.w3.org/2000/svg" stroke-width="28.222" stroke-linejoin="round" xml:space="preserve">
 <path fill="rgb(255,255,255)" stroke="none" d="M 9000,5000 L 0,5000 0,0 18000,0 18000,5000 9000,5000 Z"/>
 <path fill="none" stroke="rgb(179,179,179)" stroke-linejoin="round" d="M 6526,4701 L 981,4701 981,299 12070,299 12070,4701 6526,4701 Z"/>
 <path fill="none" stroke="rgb(179,179,179)" stroke-linejoin="round" d="M 12070,4700 L 981,4700"/>
 <path fill="none" stroke="rgb(179,179,179)" stroke-linejoin="round" d="M 12070,4210 L 981,4210"/>
 <path fill="none" stroke="rgb(179,179,179)" stroke-linejoin="round" d="M 12070,3721 L 981,3721"/>
 <path fill="none" stroke="rgb(179,179,179)" stroke-linejoin="round" d="M 12070,3232 L 981,3232"/>
 <path fill="none" stroke="rgb(179,179,179)" stroke-linejoin="round" d="M 12070,2743 L 981,2743"/>
 <path fill="none" stroke="rgb(179,179,179)" stroke-linejoin="round" d="M 12070,2254 L 981,2254"/>
 <path fill="none" stroke="rgb(179,179,179)" stroke-linejoin="round" d="M 12070,1765 L 981,1765"/>
 <path fill="none" stroke="rgb(179,179,179)" stroke-linejoin="round" d="M 12070,1276 L 981,1276"/>
 <path fill="none" stroke="rgb(179,179,179)" stroke-linejoin="round" d="M 12070,787 L 981,787"/>
 <path fill="none" stroke="rgb(179,179,179)" stroke-linejoin="round" d="M 12070,298 L 981,298"/>
 <path fill="none" stroke="rgb(179,179,179)" stroke-linejoin="round" d="M 981,4850 L 981,4700"/>
 <path fill="none" stroke="rgb(179,179,179)" stroke-linejoin="round" d="M 981,4850 L 981,4700"/>
 <path fill="none" stroke="rgb(179,179,179)" stroke-linejoin="round" d="M 12070,4850 L 12070,4700"/>
 <path fill="none" stroke="rgb(179,179,179)" stroke-linejoin="round" d="M 12070,4850 L 12070,4700"/>
 <path fill="none" stroke="rgb(179,179,179)" stroke-linejoin="round" d="M 981,4700 L 12070,4700"/>
 <path fill="none" stroke="rgb(179,179,179)" stroke-linejoin="round" d="M 831,4700 L 981,4700"/>
 <path fill="none" stroke="rgb(179,179,179)" stroke-linejoin="round" d="M 831,4700 L 981,4700"/>
 <path fill="none" stroke="rgb(179,179,179)" stroke-linejoin="round" d="M 831,4210 L 981,4210"/>
 <path fill="none" stroke="rgb(179,179,179)" stroke-linejoin="round" d="M 831,4210 L 981,4210"/>
 <path fill="none" stroke="rgb(179,179,179)" stroke-linejoin="round" d="M 831,3721 L 981,3721"/>
 <path fill="none" stroke="rgb(179,179,179)" stroke-linejoin="round" d="M 831,3721 L 981,3721"/>
 <path fill="none" stroke="rgb(179,179,179)" stroke-linejoin="round" d="M 831,3232 L 981,3232"/>
 <path fill="none" stroke="rgb(179,179,179)" stroke-linejoin="round" d="M 831,3232 L 981,3232"/>
 <path fill="none" stroke="rgb(179,179,179)" stroke-linejoin="round" d="M 831,2743 L 981,2743"/>
 <path fill="none" stroke="rgb(179,179,179)" stroke-linejoin="round" d="M 831,2743 L 981,2743"/>
 <path fill="none" stroke="rgb(179,179,179)" stroke-linejoin="round" d="M 831,2254 L 981,2254"/>
 <path fill="none" stroke="rgb(179,179,179)" stroke-linejoin="round" d="M 831,2254 L 981,2254"/>
 <path fill="none" stroke="rgb(179,179,179)" stroke-linejoin="round" d="M 831,1765 L 981,1765"/>
 <path fill="none" stroke="rgb(179,179,179)" stroke-linejoin="round" d="M 831,1765 L 981,1765"/>
 <path fill="none" stroke="rgb(179,179,179)" stroke-linejoin="round" d="M 831,1276 L 981,1276"/>
 <path fill="none" stroke="rgb(179,179,179)" stroke-linejoin="round" d="M 831,1276 L 981,1276"/>
 <path fill="none" stroke="rgb(179,179,179)" stroke-linejoin="round" d="M 831,787 L 981,787"/>
 <path fill="none" stroke="rgb(179,179,179)" stroke-linejoin="round" d="M 831,787 L 981,787"/>
 <path fill="none" stroke="rgb(179,179,179)" stroke-linejoin="round" d="M 831,298 L 981,298"/>
 <path fill="none" stroke="rgb(179,179,179)" stroke-linejoin="round" d="M 831,298 L 981,298"/>
 <path fill="none" stroke="rgb(179,179,179)" stroke-linejoin="round" d="M 981,4700 L 981,298"/>
 <path fill="rgb(0,69,134)" stroke="none" d="M 2090,4700 L 4308,4700 4308,4399 2090,4399 2090,4700 Z"/>
 <path fill="rgb(255,66,14)" stroke="none" d="M 4308,4700 L 6526,4700 6526,767 4308,767 4308,4700 Z"/>
 <path fill="rgb(255,211,32)" stroke="none" d="M 6526,4700 L 8744,4700 8744,4414 6526,4414 6526,4700 Z"/>
 <path fill="rgb(87,157,28)" stroke="none" d="M 8744,4700 L 10961,4700 10961,4421 8744,4421 8744,4700 Z"/>
 <text class="TextShape"><tspan class="TextParagraph" font-family="Liberation Sans, sans-serif" font-size="353px" font-weight="400"><tspan class="TextPosition" x="546" y="4821"><tspan fill="rgb(0,0,0)" stroke="none">0</tspan></tspan></tspan></text>
 <text class="TextShape"><tspan class="TextParagraph" font-family="Liberation Sans, sans-serif" font-size="353px" font-weight="400"><tspan class="TextPosition" x="546" y="4331"><tspan fill="rgb(0,0,0)" stroke="none">2</tspan></tspan></tspan></text>
 <text class="TextShape"><tspan class="TextParagraph" font-family="Liberation Sans, sans-serif" font-size="353px" font-weight="400"><tspan class="TextPosition" x="546" y="3842"><tspan fill="rgb(0,0,0)" stroke="none">4</tspan></tspan></tspan></text>
 <text class="TextShape"><tspan class="TextParagraph" font-family="Liberation Sans, sans-serif" font-size="353px" font-weight="400"><tspan class="TextPosition" x="546" y="3353"><tspan fill="rgb(0,0,0)" stroke="none">6</tspan></tspan></tspan></text>
 <text class="TextShape"><tspan class="TextParagraph" font-family="Liberation Sans, sans-serif" font-size="353px" font-weight="400"><tspan class="TextPosition" x="546" y="2864"><tspan fill="rgb(0,0,0)" stroke="none">8</tspan></tspan></tspan></text>
 <text class="TextShape"><tspan class="TextParagraph" font-family="Liberation Sans, sans-serif" font-size="353px" font-weight="400"><tspan class="TextPosition" x="361" y="2374"><tspan fill="rgb(0,0,0)" stroke="none">10</tspan></tspan></tspan></text>
 <text class="TextShape"><tspan class="TextParagraph" font-family="Liberation Sans, sans-serif" font-size="353px" font-weight="400"><tspan class="TextPosition" x="361" y="1885"><tspan fill="rgb(0,0,0)" stroke="none">12</tspan></tspan></tspan></text>
 <text class="TextShape"><tspan class="TextParagraph" font-family="Liberation Sans, sans-serif" font-size="353px" font-weight="400"><tspan class="TextPosition" x="361" y="1396"><tspan fill="rgb(0,0,0)" stroke="none">14</tspan></tspan></tspan></text>
 <text class="TextShape"><tspan class="TextParagraph" font-family="Liberation Sans, sans-serif" font-size="353px" font-weight="400"><tspan class="TextPosition" x="361" y="907"><tspan fill="rgb(0,0,0)" stroke="none">16</tspan></tspan></tspan></text>
 <text class="TextShape"><tspan class="TextParagraph" font-family="Liberation Sans, sans-serif" font-size="353px" font-weight="400"><tspan class="TextPosition" x="361" y="418"><tspan fill="rgb(0,0,0)" stroke="none">18</tspan></tspan></tspan></text>
 <path fill="rgb(0,69,134)" stroke="none" d="M 12652,1858 L 12546,1858 12546,1647 12757,1647 12757,1858 12652,1858 Z"/>
 <path fill="rgb(255,66,14)" stroke="none" d="M 12652,2356 L 12546,2356 12546,2145 12757,2145 12757,2356 12652,2356 Z"/>
 <path fill="rgb(255,211,32)" stroke="none" d="M 12652,2853 L 12546,2853 12546,2642 12757,2642 12757,2853 12652,2853 Z"/>
 <path fill="rgb(87,157,28)" stroke="none" d="M 12652,3351 L 12546,3351 12546,3140 12757,3140 12757,3351 12652,3351 Z"/>
 <text class="TextShape"><tspan class="TextParagraph" font-family="Liberation Sans, sans-serif" font-size="353px" font-weight="400"><tspan class="TextPosition" x="12857" y="1872"><tspan fill="rgb(0,0,0)" stroke="none">mutex</tspan></tspan></tspan></text>
 <text class="TextShape"><tspan class="TextParagraph" font-family="Liberation Sans, sans-serif" font-size="353px" font-weight="400"><tspan class="TextPosition" x="12857" y="2370"><tspan fill="rgb(0,0,0)" stroke="none">Ricart-Agrawala</tspan></tspan></tspan></text>
 <text class="TextShape"><tspan class="TextParagraph" font-family="Liberation Sans, sans-serif" font-size="353px" font-weight="400"><tspan class="TextPosition" x="12857" y="2867"><tspan fill="rgb(0,0,0)" stroke="none">Token passing Ricart-Agrawala </tspan></tspan></tspan></text>
 <text class="TextShape"><tspan class="TextParagraph" font-family="Liberation Sans, sans-serif" font-size="353px" font-weight="400"><tspan class="TextPosition" x="12857" y="3365"><tspan fill="rgb(0,0,0)" stroke="none">Token-passing Neilsen-Mizuno</tspan></tspan></tspan></text>
</svg>