<?xml version="1.0" encoding="UTF-8"?>
<!DOCTYPE svg PUBLIC "-//W3C//DTD SVG 1.1//EN" "http://www.w3.org/Graphics/SVG/1.1/DTD/svg11.dtd">
<svg width="180mm" height="50mm" viewBox="0 0 18000 5000" version="1.1" baseProfile="tiny" xmlns="http://www.w3.org/2000/svg" stroke-width="28.222" stroke-linejoin="round" xml:space="preserve">
 <path fill="rgb(255,255,255)" stroke="none" d="M 9020,5000 L 20,5000 20,0 18020,0 18020,5000 9020,5000 Z"/>
 <path fill="none" stroke="rgb(179,179,179)" stroke-linejoin="round" d="M 7921,4253 L 816,4253 816,299 15026,299 15026,4253 7921,4253 Z"/>
 <path fill="none" stroke="rgb(179,179,179)" stroke-linejoin="round" d="M 15026,4252 L 816,4252"/>
 <path fill="none" stroke="rgb(179,179,179)" stroke-linejoin="round" d="M 15026,3812 L 816,3812"/>
 <path fill="none" stroke="rgb(179,179,179)" stroke-linejoin="round" d="M 15026,3373 L 816,3373"/>
 <path fill="none" stroke="rgb(179,179,179)" stroke-linejoin="round" d="M 15026,2933 L 816,2933"/>
 <path fill="none" stroke="rgb(179,179,179)" stroke-linejoin="round" d="M 15026,2495 L 816,2495"/>
 <path fill="none" stroke="rgb(179,179,179)" stroke-linejoin="round" d="M 15026,2055 L 816,2055"/>
 <path fill="none" stroke="rgb(179,179,179)" stroke-linejoin="round" d="M 15026,1616 L 816,1616"/>
 <path fill="none" stroke="rgb(179,179,179)" stroke-linejoin="round" d="M 15026,1176 L 816,1176"/>
 <path fill="none" stroke="rgb(179,179,179)" stroke-linejoin="round" d="M 15026,737 L 816,737"/>
 <path fill="none" stroke="rgb(179,179,179)" stroke-linejoin="round" d="M 15026,298 L 816,298"/>
 <path fill="none" stroke="rgb(179,179,179)" stroke-linejoin="round" d="M 816,4402 L 816,4252"/>
 <path fill="none" stroke="rgb(179,179,179)" stroke-linejoin="round" d="M 816,4402 L 816,4252"/>
 <path fill="none" stroke="rgb(179,179,179)" stroke-linejoin="round" d="M 7921,4402 L 7921,4252"/>
 <path fill="none" stroke="rgb(179,179,179)" stroke-linejoin="round" d="M 7921,4402 L 7921,4252"/>
 <path fill="none" stroke="rgb(179,179,179)" stroke-linejoin="round" d="M 15026,4402 L 15026,4252"/>
 <path fill="none" stroke="rgb(179,179,179)" stroke-linejoin="round" d="M 15026,4402 L 15026,4252"/>
 <path fill="none" stroke="rgb(179,179,179)" stroke-linejoin="round" d="M 816,4252 L 15026,4252"/>
 <path fill="none" stroke="rgb(179,179,179)" stroke-linejoin="round" d="M 666,4252 L 816,4252"/>
 <path fill="none" stroke="rgb(179,179,179)" stroke-linejoin="round" d="M 666,4252 L 816,4252"/>
 <path fill="none" stroke="rgb(179,179,179)" stroke-linejoin="round" d="M 666,3812 L 816,3812"/>
 <path fill="none" stroke="rgb(179,179,179)" stroke-linejoin="round" d="M 666,3812 L 816,3812"/>
 <path fill="none" stroke="rgb(179,179,179)" stroke-linejoin="round" d="M 666,3373 L 816,3373"/>
 <path fill="none" stroke="rgb(179,179,179)" stroke-linejoin="round" d="M 666,3373 L 816,3373"/>
 <path fill="none" stroke="rgb(179,179,179)" stroke-linejoin="round" d="M 666,2933 L 816,2933"/>
 <path fill="none" stroke="rgb(179,179,179)" stroke-linejoin="round" d="M 666,2933 L 816,2933"/>
 <path fill="none" stroke="rgb(179,179,179)" stroke-linejoin="round" d="M 666,2495 L 816,2495"/>
 <path fill="none" stroke="rgb(179,179,179)" stroke-linejoin="round" d="M 666,2495 L 816,2495"/>
 <path fill="none" stroke="rgb(179,179,179)" stroke-linejoin="round" d="M 666,2055 L 816,2055"/>
 <path fill="none" stroke="rgb(179,179,179)" stroke-linejoin="round" d="M 666,2055 L 816,2055"/>
 <path fill="none" stroke="rgb(179,179,179)" stroke-linejoin="round" d="M 666,1616 L 816,1616"/>
 <path fill="none" stroke="rgb(179,179,179)" stroke-linejoin="round" d="M 666,1616 L 816,1616"/>
 <path fill="none" stroke="rgb(179,179,179)" stroke-linejoin="round" d="M 666,1176 L 816,1176"/>
 <path fill="none" stroke="rgb(179,179,179)" stroke-linejoin="round" d="M 666,1176 L 816,1176"/>
 <path fill="none" stroke="rgb(179,179,179)" stroke-linejoin="round" d="M 666,737 L 816,737"/>
 <path fill="none" stroke="rgb(179,179,179)" stroke-linejoin="round" d="M 666,737 L 816,737"/>
 <path fill="none" stroke="rgb(179,179,179)" stroke-linejoin="round" d="M 666,298 L 816,298"/>
 <path fill="none" stroke="rgb(179,179,179)" stroke-linejoin="round" d="M 666,298 L 816,298"/>
 <path fill="none" stroke="rgb(179,179,179)" stroke-linejoin="round" d="M 816,4252 L 816,298"/>
 <path fill="rgb(0,69,134)" stroke="none" d="M 9104,4252 L 11473,4252 11473,674 9104,674 9104,4252 Z"/>
 <path fill="rgb(0,69,134)" stroke="none" d="M 2000,4252 L 4368,4252 4368,2532 2000,2532 2000,4252 Z"/>
 <path fill="rgb(255,66,14)" stroke="none" d="M 11473,4252 L 13841,4252 13841,2377 11473,2377 11473,4252 Z"/>
 <path fill="rgb(255,66,14)" stroke="none" d="M 4368,4252 L 6737,4252 6737,2901 4368,2901 4368,4252 Z"/>
 <text class="TextShape"><tspan class="TextParagraph" font-family="Liberation Sans, sans-serif" font-size="353px" font-weight="400"><tspan class="TextPosition" x="3270" y="4820"><tspan fill="rgb(0,0,0)" stroke="none">Posix Threads</tspan></tspan></tspan></text>
 <text class="TextShape"><tspan class="TextParagraph" font-family="Liberation Sans, sans-serif" font-size="353px" font-weight="400"><tspan class="TextPosition" x="11103" y="4820"><tspan fill="rgb(0,0,0)" stroke="none">Java</tspan></tspan></tspan></text>
 <text class="TextShape"><tspan class="TextParagraph" font-family="Liberation Sans, sans-serif" font-size="353px" font-weight="400"><tspan class="TextPosition" x="381" y="4373"><tspan fill="rgb(0,0,0)" stroke="none">0</tspan></tspan></tspan></text>
 <text class="TextShape"><tspan class="TextParagraph" font-family="Liberation Sans, sans-serif" font-size="353px" font-weight="400"><tspan class="TextPosition" x="381" y="3933"><tspan fill="rgb(0,0,0)" stroke="none">1</tspan></tspan></tspan></text>
 <text class="TextShape"><tspan class="TextParagraph" font-family="Liberation Sans, sans-serif" font-size="353px" font-weight="400"><tspan class="TextPosition" x="381" y="3494"><tspan fill="rgb(0,0,0)" stroke="none">2</tspan></tspan></tspan></text>
 <text class="TextShape"><tspan class="TextParagraph" font-family="Liberation Sans, sans-serif" font-size="353px" font-weight="400"><tspan class="TextPosition" x="381" y="3054"><tspan fill="rgb(0,0,0)" stroke="none">3</tspan></tspan></tspan></text>
 <text class="TextShape"><tspan class="TextParagraph" font-family="Liberation Sans, sans-serif" font-size="353px" font-weight="400"><tspan class="TextPosition" x="381" y="2615"><tspan fill="rgb(0,0,0)" stroke="none">4</tspan></tspan></tspan></text>
 <text class="TextShape"><tspan class="TextParagraph" font-family="Liberation Sans, sans-serif" font-size="353px" font-weight="400"><tspan class="TextPosition" x="381" y="2175"><tspan fill="rgb(0,0,0)" stroke="none">5</tspan></tspan></tspan></text>
 <text class="TextShape"><tspan class="TextParagraph" font-family="Liberation Sans, sans-serif" font-size="353px" font-weight="400"><tspan class="TextPosition" x="381" y="1736"><tspan fill="rgb(0,0,0)" stroke="none">6</tspan></tspan></tspan></text>
 <text class="TextShape"><tspan class="TextParagraph" font-family="Liberation Sans, sans-serif" font-size="353px" font-weight="400"><tspan class="TextPosition" x="381" y="1296"><tspan fill="rgb(0,0,0)" stroke="none">7</tspan></tspan></tspan></text>
 <text class="TextShape"><tspan class="TextParagraph" font-family="Liberation Sans, sans-serif" font-size="353px" font-weight="400"><tspan class="TextPosition" x="381" y="857"><tspan fill="rgb(0,0,0)" stroke="none">8</tspan></tspan></tspan></text>
 <text class="TextShape"><tspan class="TextParagraph" font-family="Liberation Sans, sans-serif" font-size="353px" font-weight="400"><tspan class="TextPosition" x="381" y="418"><tspan fill="rgb(0,0,0)" stroke="none">9</tspan></tspan></tspan></text>
 <path fill="rgb(0,69,134)" stroke="none" d="M 15608,2356 L 15502,2356 15502,2145 15713,2145 15713,2356 15608,2356 Z"/>
 <path fill="rgb(255,66,14)" stroke="none" d="M 15608,2853 L 15502,2853 15502,2642 15713,2642 15713,2853 15608,2853 Z"/>
 <text class="TextShape"><tspan class="TextParagraph" font-family="Liberation Sans, sans-serif" font-size="353px" font-weight="400"><tspan class="TextPosition" x="15813" y="2370"><tspan fill="rgb(0,0,0)" stroke="none">semaphores</tspan></tspan></tspan></text>
 <text class="TextShape"><tspan class="TextParagraph" font-family="Liberation Sans, sans-serif" font-size="353px" font-weight="400"><tspan class="TextPosition" x="15813" y="2867"><tspan fill="rgb(0,0,0)" stroke="none">monitor</tspan></tspan></tspan></text>
</svg>