<?xml version="1.0" encoding="UTF-8"?>
<!DOCTYPE svg PUBLIC "-//W3C//DTD SVG 1.1//EN" "http://www.w3.org/Graphics/SVG/1.1/DTD/svg11.dtd">
<svg width="180mm" height="50mm" viewBox="0 0 18000 5000" version="1.1" baseProfile="tiny" xmlns="http://www.w3.org/2000/svg" stroke-width="28.222" stroke-linejoin="round" xml:space="preserve">
 <path fill="rgb(255,255,255)" stroke="none" d="M 9000,5000 L 0,5000 0,0 18000,0 18000,5000 9000,5000 Z"/>
 <path fill="none" stroke="rgb(179,179,179)" stroke-linejoin="round" d="M 7901,4253 L 796,4253 796,299 15006,299 15006,4253 7901,4253 Z"/>
 <path fill="none" stroke="rgb(179,179,179)" stroke-linejoin="round" d="M 15006,4252 L 796,4252"/>
 <path fill="none" stroke="rgb(179,179,179)" stroke-linejoin="round" d="M 15006,3687 L 796,3687"/>
 <path fill="none" stroke="rgb(179,179,179)" stroke-linejoin="round" d="M 15006,3122 L 796,3122"/>
 <path fill="none" stroke="rgb(179,179,179)" stroke-linejoin="round" d="M 15006,2556 L 796,2556"/>
 <path fill="none" stroke="rgb(179,179,179)" stroke-linejoin="round" d="M 15006,1992 L 796,1992"/>
 <path fill="none" stroke="rgb(179,179,179)" stroke-linejoin="round" d="M 15006,1427 L 796,1427"/>
 <path fill="none" stroke="rgb(179,179,179)" stroke-linejoin="round" d="M 15006,862 L 796,862"/>
 <path fill="none" stroke="rgb(179,179,179)" stroke-linejoin="round" d="M 15006,297 L 796,297"/>
 <path fill="none" stroke="rgb(179,179,179)" stroke-linejoin="round" d="M 796,4402 L 796,4252"/>
 <path fill="none" stroke="rgb(179,179,179)" stroke-linejoin="round" d="M 796,4402 L 796,4252"/>
 <path fill="none" stroke="rgb(179,179,179)" stroke-linejoin="round" d="M 7901,4402 L 7901,4252"/>
 <path fill="none" stroke="rgb(179,179,179)" stroke-linejoin="round" d="M 7901,4402 L 7901,4252"/>
 <path fill="none" stroke="rgb(179,179,179)" stroke-linejoin="round" d="M 15006,4402 L 15006,4252"/>
 <path fill="none" stroke="rgb(179,179,179)" stroke-linejoin="round" d="M 15006,4402 L 15006,4252"/>
 <path fill="none" stroke="rgb(179,179,179)" stroke-linejoin="round" d="M 796,4252 L 15006,4252"/>
 <path fill="none" stroke="rgb(179,179,179)" stroke-linejoin="round" d="M 646,4252 L 796,4252"/>
 <path fill="none" stroke="rgb(179,179,179)" stroke-linejoin="round" d="M 646,4252 L 796,4252"/>
 <path fill="none" stroke="rgb(179,179,179)" stroke-linejoin="round" d="M 646,3687 L 796,3687"/>
 <path fill="none" stroke="rgb(179,179,179)" stroke-linejoin="round" d="M 646,3687 L 796,3687"/>
 <path fill="none" stroke="rgb(179,179,179)" stroke-linejoin="round" d="M 646,3122 L 796,3122"/>
 <path fill="none" stroke="rgb(179,179,179)" stroke-linejoin="round" d="M 646,3122 L 796,3122"/>
 <path fill="none" stroke="rgb(179,179,179)" stroke-linejoin="round" d="M 646,2557 L 796,2557"/>
 <path fill="none" stroke="rgb(179,179,179)" stroke-linejoin="round" d="M 646,2557 L 796,2557"/>
 <path fill="none" stroke="rgb(179,179,179)" stroke-linejoin="round" d="M 646,1992 L 796,1992"/>
 <path fill="none" stroke="rgb(179,179,179)" stroke-linejoin="round" d="M 646,1992 L 796,1992"/>
 <path fill="none" stroke="rgb(179,179,179)" stroke-linejoin="round" d="M 646,1427 L 796,1427"/>
 <path fill="none" stroke="rgb(179,179,179)" stroke-linejoin="round" d="M 646,1427 L 796,1427"/>
 <path fill="none" stroke="rgb(179,179,179)" stroke-linejoin="round" d="M 646,862 L 796,862"/>
 <path fill="none" stroke="rgb(179,179,179)" stroke-linejoin="round" d="M 646,862 L 796,862"/>
 <path fill="none" stroke="rgb(179,179,179)" stroke-linejoin="round" d="M 646,297 L 796,297"/>
 <path fill="none" stroke="rgb(179,179,179)" stroke-linejoin="round" d="M 646,297 L 796,297"/>
 <path fill="none" stroke="rgb(179,179,179)" stroke-linejoin="round" d="M 796,4252 L 796,297"/>
 <path fill="rgb(0,69,134)" stroke="none" d="M 9084,4252 L 11453,4252 11453,1725 9084,1725 9084,4252 Z"/>
 <path fill="rgb(0,69,134)" stroke="none" d="M 1980,4252 L 4348,4252 4348,2858 1980,2858 1980,4252 Z"/>
 <path fill="rgb(255,66,14)" stroke="none" d="M 11453,4252 L 13821,4252 13821,939 11453,939 11453,4252 Z"/>
 <path fill="rgb(255,66,14)" stroke="none" d="M 4348,4252 L 6717,4252 6717,1881 4348,1881 4348,4252 Z"/>
 <text class="TextShape"><tspan class="TextParagraph" font-family="Liberation Sans" font-size="353px" font-weight="400"><tspan class="TextPosition" x="3250" y="4820"><tspan fill="rgb(0,0,0)" stroke="none">Posix Threads</tspan></tspan></tspan></text>
 <text class="TextShape"><tspan class="TextParagraph" font-family="Liberation Sans" font-size="353px" font-weight="400"><tspan class="TextPosition" x="11083" y="4820"><tspan fill="rgb(0,0,0)" stroke="none">Java</tspan></tspan></tspan></text>
 <text class="TextShape"><tspan class="TextParagraph" font-family="Liberation Sans" font-size="353px" font-weight="400"><tspan class="TextPosition" x="361" y="4373"><tspan fill="rgb(0,0,0)" stroke="none">0</tspan></tspan></tspan></text>
 <text class="TextShape"><tspan class="TextParagraph" font-family="Liberation Sans" font-size="353px" font-weight="400"><tspan class="TextPosition" x="361" y="3808"><tspan fill="rgb(0,0,0)" stroke="none">1</tspan></tspan></tspan></text>
 <text class="TextShape"><tspan class="TextParagraph" font-family="Liberation Sans" font-size="353px" font-weight="400"><tspan class="TextPosition" x="361" y="3243"><tspan fill="rgb(0,0,0)" stroke="none">2</tspan></tspan></tspan></text>
 <text class="TextShape"><tspan class="TextParagraph" font-family="Liberation Sans" font-size="353px" font-weight="400"><tspan class="TextPosition" x="361" y="2678"><tspan fill="rgb(0,0,0)" stroke="none">3</tspan></tspan></tspan></text>
 <text class="TextShape"><tspan class="TextParagraph" font-family="Liberation Sans" font-size="353px" font-weight="400"><tspan class="TextPosition" x="361" y="2112"><tspan fill="rgb(0,0,0)" stroke="none">4</tspan></tspan></tspan></text>
 <text class="TextShape"><tspan class="TextParagraph" font-family="Liberation Sans" font-size="353px" font-weight="400"><tspan class="TextPosition" x="361" y="1547"><tspan fill="rgb(0,0,0)" stroke="none">5</tspan></tspan></tspan></text>
 <text class="TextShape"><tspan class="TextParagraph" font-family="Liberation Sans" font-size="353px" font-weight="400"><tspan class="TextPosition" x="361" y="982"><tspan fill="rgb(0,0,0)" stroke="none">6</tspan></tspan></tspan></text>
 <text class="TextShape"><tspan class="TextParagraph" font-family="Liberation Sans" font-size="353px" font-weight="400"><tspan class="TextPosition" x="361" y="417"><tspan fill="rgb(0,0,0)" stroke="none">7</tspan></tspan></tspan></text>
 <path fill="rgb(0,69,134)" stroke="none" d="M 15588,2356 L 15482,2356 15482,2145 15693,2145 15693,2356 15588,2356 Z"/>
 <path fill="rgb(255,66,14)" stroke="none" d="M 15588,2853 L 15482,2853 15482,2642 15693,2642 15693,2853 15588,2853 Z"/>
 <text class="TextShape"><tspan class="TextParagraph" font-family="Liberation Sans" font-size="353px" font-weight="400"><tspan class="TextPosition" x="15793" y="2370"><tspan fill="rgb(0,0,0)" stroke="none">semaphores</tspan></tspan></tspan></text>
 <text class="TextShape"><tspan class="TextParagraph" font-family="Liberation Sans" font-size="353px" font-weight="400"><tspan class="TextPosition" x="15793" y="2867"><tspan fill="rgb(0,0,0)" stroke="none">monitor</tspan></tspan></tspan></text>
</svg>