<?xml version="1.0" encoding="UTF-8"?>
<!DOCTYPE svg PUBLIC "-//W3C//DTD SVG 1.1//EN" "http://www.w3.org/Graphics/SVG/1.1/DTD/svg11.dtd">
<svg width="180mm" height="50mm" viewBox="0 0 18000 5000" version="1.1" baseProfile="tiny" xmlns="http://www.w3.org/2000/svg" stroke-width="28.222" stroke-linejoin="round" xml:space="preserve">
 <path fill="rgb(255,255,255)" stroke="none" d="M 9000,5000 L 0,5000 0,0 18000,0 18000,5000 9000,5000 Z"/>
 <path fill="none" stroke="rgb(179,179,179)" stroke-linejoin="round" d="M 7213,4253 L 981,4253 981,299 13445,299 13445,4253 7213,4253 Z"/>
 <path fill="none" stroke="rgb(179,179,179)" stroke-linejoin="round" d="M 13445,4252 L 981,4252"/>
 <path fill="none" stroke="rgb(179,179,179)" stroke-linejoin="round" d="M 13445,3461 L 981,3461"/>
 <path fill="none" stroke="rgb(179,179,179)" stroke-linejoin="round" d="M 13445,2670 L 981,2670"/>
 <path fill="none" stroke="rgb(179,179,179)" stroke-linejoin="round" d="M 13445,1880 L 981,1880"/>
 <path fill="none" stroke="rgb(179,179,179)" stroke-linejoin="round" d="M 13445,1089 L 981,1089"/>
 <path fill="none" stroke="rgb(179,179,179)" stroke-linejoin="round" d="M 13445,298 L 981,298"/>
 <path fill="none" stroke="rgb(179,179,179)" stroke-linejoin="round" d="M 981,4402 L 981,4252"/>
 <path fill="none" stroke="rgb(179,179,179)" stroke-linejoin="round" d="M 981,4402 L 981,4252"/>
 <path fill="none" stroke="rgb(179,179,179)" stroke-linejoin="round" d="M 7213,4402 L 7213,4252"/>
 <path fill="none" stroke="rgb(179,179,179)" stroke-linejoin="round" d="M 7213,4402 L 7213,4252"/>
 <path fill="none" stroke="rgb(179,179,179)" stroke-linejoin="round" d="M 13445,4402 L 13445,4252"/>
 <path fill="none" stroke="rgb(179,179,179)" stroke-linejoin="round" d="M 13445,4402 L 13445,4252"/>
 <path fill="none" stroke="rgb(179,179,179)" stroke-linejoin="round" d="M 981,4252 L 13445,4252"/>
 <path fill="none" stroke="rgb(179,179,179)" stroke-linejoin="round" d="M 831,4252 L 981,4252"/>
 <path fill="none" stroke="rgb(179,179,179)" stroke-linejoin="round" d="M 831,4252 L 981,4252"/>
 <path fill="none" stroke="rgb(179,179,179)" stroke-linejoin="round" d="M 831,3461 L 981,3461"/>
 <path fill="none" stroke="rgb(179,179,179)" stroke-linejoin="round" d="M 831,3461 L 981,3461"/>
 <path fill="none" stroke="rgb(179,179,179)" stroke-linejoin="round" d="M 831,2670 L 981,2670"/>
 <path fill="none" stroke="rgb(179,179,179)" stroke-linejoin="round" d="M 831,2670 L 981,2670"/>
 <path fill="none" stroke="rgb(179,179,179)" stroke-linejoin="round" d="M 831,1879 L 981,1879"/>
 <path fill="none" stroke="rgb(179,179,179)" stroke-linejoin="round" d="M 831,1879 L 981,1879"/>
 <path fill="none" stroke="rgb(179,179,179)" stroke-linejoin="round" d="M 831,1089 L 981,1089"/>
 <path fill="none" stroke="rgb(179,179,179)" stroke-linejoin="round" d="M 831,1089 L 981,1089"/>
 <path fill="none" stroke="rgb(179,179,179)" stroke-linejoin="round" d="M 831,298 L 981,298"/>
 <path fill="none" stroke="rgb(179,179,179)" stroke-linejoin="round" d="M 831,298 L 981,298"/>
 <path fill="none" stroke="rgb(179,179,179)" stroke-linejoin="round" d="M 981,4252 L 981,298"/>
 <path fill="rgb(0,69,134)" stroke="none" d="M 8252,4252 L 10328,4252 10328,4090 8252,4090 8252,4252 Z"/>
 <path fill="rgb(0,69,134)" stroke="none" d="M 2019,4252 L 4097,4252 4097,3901 2019,3901 2019,4252 Z"/>
 <path fill="rgb(255,66,14)" stroke="none" d="M 10328,4252 L 12406,4252 12406,3569 10328,3569 10328,4252 Z"/>
 <path fill="rgb(255,66,14)" stroke="none" d="M 4097,4252 L 6174,4252 6174,579 4097,579 4097,4252 Z"/>
 <text class="TextShape"><tspan class="TextParagraph" font-family="Liberation Sans, sans-serif" font-size="353px" font-weight="400"><tspan class="TextPosition" x="2999" y="4820"><tspan fill="rgb(0,0,0)" stroke="none">Posix Threads</tspan></tspan></tspan></text>
 <text class="TextShape"><tspan class="TextParagraph" font-family="Liberation Sans, sans-serif" font-size="353px" font-weight="400"><tspan class="TextPosition" x="9958" y="4820"><tspan fill="rgb(0,0,0)" stroke="none">Java</tspan></tspan></tspan></text>
 <text class="TextShape"><tspan class="TextParagraph" font-family="Liberation Sans, sans-serif" font-size="353px" font-weight="400"><tspan class="TextPosition" x="546" y="4373"><tspan fill="rgb(0,0,0)" stroke="none">0</tspan></tspan></tspan></text>
 <text class="TextShape"><tspan class="TextParagraph" font-family="Liberation Sans, sans-serif" font-size="353px" font-weight="400"><tspan class="TextPosition" x="546" y="3582"><tspan fill="rgb(0,0,0)" stroke="none">2</tspan></tspan></tspan></text>
 <text class="TextShape"><tspan class="TextParagraph" font-family="Liberation Sans, sans-serif" font-size="353px" font-weight="400"><tspan class="TextPosition" x="546" y="2791"><tspan fill="rgb(0,0,0)" stroke="none">4</tspan></tspan></tspan></text>
 <text class="TextShape"><tspan class="TextParagraph" font-family="Liberation Sans, sans-serif" font-size="353px" font-weight="400"><tspan class="TextPosition" x="546" y="1999"><tspan fill="rgb(0,0,0)" stroke="none">6</tspan></tspan></tspan></text>
 <text class="TextShape"><tspan class="TextParagraph" font-family="Liberation Sans, sans-serif" font-size="353px" font-weight="400"><tspan class="TextPosition" x="546" y="1209"><tspan fill="rgb(0,0,0)" stroke="none">8</tspan></tspan></tspan></text>
 <text class="TextShape"><tspan class="TextParagraph" font-family="Liberation Sans, sans-serif" font-size="353px" font-weight="400"><tspan class="TextPosition" x="361" y="418"><tspan fill="rgb(0,0,0)" stroke="none">10</tspan></tspan></tspan></text>
 <path fill="rgb(0,69,134)" stroke="none" d="M 14027,2356 L 13921,2356 13921,2145 14132,2145 14132,2356 14027,2356 Z"/>
 <path fill="rgb(255,66,14)" stroke="none" d="M 14027,2853 L 13921,2853 13921,2642 14132,2642 14132,2853 14027,2853 Z"/>
 <text class="TextShape"><tspan class="TextParagraph" font-family="Liberation Sans, sans-serif" font-size="353px" font-weight="400"><tspan class="TextPosition" x="14232" y="2370"><tspan fill="rgb(0,0,0)" stroke="none">mutex</tspan></tspan></tspan></text>
 <text class="TextShape"><tspan class="TextParagraph" font-family="Liberation Sans, sans-serif" font-size="353px" font-weight="400"><tspan class="TextPosition" x="14232" y="2867"><tspan fill="rgb(0,0,0)" stroke="none">emulation with monitor</tspan></tspan></tspan></text>
</svg>