<?xml version="1.0" encoding="UTF-8"?>
<!DOCTYPE svg PUBLIC "-//W3C//DTD SVG 1.1//EN" "http://www.w3.org/Graphics/SVG/1.1/DTD/svg11.dtd">
<svg width="180mm" height="50mm" viewBox="0 0 18000 5000" version="1.1" baseProfile="tiny" xmlns="http://www.w3.org/2000/svg" stroke-width="28.222" stroke-linejoin="round" xml:space="preserve">
 <path fill="rgb(255,255,255)" stroke="none" d="M 9019,5000 L 19,5000 19,0 18019,0 18019,5000 9019,5000 Z"/>
 <path fill="none" stroke="rgb(179,179,179)" stroke-linejoin="round" d="M 8304,4253 L 815,4253 815,299 15793,299 15793,4253 8304,4253 Z"/>
 <path fill="none" stroke="rgb(179,179,179)" stroke-linejoin="round" d="M 15793,4252 L 815,4252"/>
 <path fill="none" stroke="rgb(179,179,179)" stroke-linejoin="round" d="M 15793,3812 L 815,3812"/>
 <path fill="none" stroke="rgb(179,179,179)" stroke-linejoin="round" d="M 15793,3373 L 815,3373"/>
 <path fill="none" stroke="rgb(179,179,179)" stroke-linejoin="round" d="M 15793,2933 L 815,2933"/>
 <path fill="none" stroke="rgb(179,179,179)" stroke-linejoin="round" d="M 15793,2495 L 815,2495"/>
 <path fill="none" stroke="rgb(179,179,179)" stroke-linejoin="round" d="M 15793,2055 L 815,2055"/>
 <path fill="none" stroke="rgb(179,179,179)" stroke-linejoin="round" d="M 15793,1616 L 815,1616"/>
 <path fill="none" stroke="rgb(179,179,179)" stroke-linejoin="round" d="M 15793,1176 L 815,1176"/>
 <path fill="none" stroke="rgb(179,179,179)" stroke-linejoin="round" d="M 15793,737 L 815,737"/>
 <path fill="none" stroke="rgb(179,179,179)" stroke-linejoin="round" d="M 15793,298 L 815,298"/>
 <path fill="none" stroke="rgb(179,179,179)" stroke-linejoin="round" d="M 815,4402 L 815,4252"/>
 <path fill="none" stroke="rgb(179,179,179)" stroke-linejoin="round" d="M 815,4402 L 815,4252"/>
 <path fill="none" stroke="rgb(179,179,179)" stroke-linejoin="round" d="M 5808,4402 L 5808,4252"/>
 <path fill="none" stroke="rgb(179,179,179)" stroke-linejoin="round" d="M 5808,4402 L 5808,4252"/>
 <path fill="none" stroke="rgb(179,179,179)" stroke-linejoin="round" d="M 10800,4402 L 10800,4252"/>
 <path fill="none" stroke="rgb(179,179,179)" stroke-linejoin="round" d="M 10800,4402 L 10800,4252"/>
 <path fill="none" stroke="rgb(179,179,179)" stroke-linejoin="round" d="M 15793,4402 L 15793,4252"/>
 <path fill="none" stroke="rgb(179,179,179)" stroke-linejoin="round" d="M 15793,4402 L 15793,4252"/>
 <path fill="none" stroke="rgb(179,179,179)" stroke-linejoin="round" d="M 815,4252 L 15793,4252"/>
 <path fill="none" stroke="rgb(179,179,179)" stroke-linejoin="round" d="M 665,4252 L 815,4252"/>
 <path fill="none" stroke="rgb(179,179,179)" stroke-linejoin="round" d="M 665,4252 L 815,4252"/>
 <path fill="none" stroke="rgb(179,179,179)" stroke-linejoin="round" d="M 665,3812 L 815,3812"/>
 <path fill="none" stroke="rgb(179,179,179)" stroke-linejoin="round" d="M 665,3812 L 815,3812"/>
 <path fill="none" stroke="rgb(179,179,179)" stroke-linejoin="round" d="M 665,3373 L 815,3373"/>
 <path fill="none" stroke="rgb(179,179,179)" stroke-linejoin="round" d="M 665,3373 L 815,3373"/>
 <path fill="none" stroke="rgb(179,179,179)" stroke-linejoin="round" d="M 665,2933 L 815,2933"/>
 <path fill="none" stroke="rgb(179,179,179)" stroke-linejoin="round" d="M 665,2933 L 815,2933"/>
 <path fill="none" stroke="rgb(179,179,179)" stroke-linejoin="round" d="M 665,2495 L 815,2495"/>
 <path fill="none" stroke="rgb(179,179,179)" stroke-linejoin="round" d="M 665,2495 L 815,2495"/>
 <path fill="none" stroke="rgb(179,179,179)" stroke-linejoin="round" d="M 665,2055 L 815,2055"/>
 <path fill="none" stroke="rgb(179,179,179)" stroke-linejoin="round" d="M 665,2055 L 815,2055"/>
 <path fill="none" stroke="rgb(179,179,179)" stroke-linejoin="round" d="M 665,1616 L 815,1616"/>
 <path fill="none" stroke="rgb(179,179,179)" stroke-linejoin="round" d="M 665,1616 L 815,1616"/>
 <path fill="none" stroke="rgb(179,179,179)" stroke-linejoin="round" d="M 665,1176 L 815,1176"/>
 <path fill="none" stroke="rgb(179,179,179)" stroke-linejoin="round" d="M 665,1176 L 815,1176"/>
 <path fill="none" stroke="rgb(179,179,179)" stroke-linejoin="round" d="M 665,737 L 815,737"/>
 <path fill="none" stroke="rgb(179,179,179)" stroke-linejoin="round" d="M 665,737 L 815,737"/>
 <path fill="none" stroke="rgb(179,179,179)" stroke-linejoin="round" d="M 665,298 L 815,298"/>
 <path fill="none" stroke="rgb(179,179,179)" stroke-linejoin="round" d="M 665,298 L 815,298"/>
 <path fill="none" stroke="rgb(179,179,179)" stroke-linejoin="round" d="M 815,4252 L 815,298"/>
 <path fill="rgb(0,69,134)" stroke="none" d="M 11299,4252 L 12297,4252 12297,900 11299,900 11299,4252 Z"/>
 <path fill="rgb(0,69,134)" stroke="none" d="M 6307,4252 L 7305,4252 7305,1217 6307,1217 6307,4252 Z"/>
 <path fill="rgb(0,69,134)" stroke="none" d="M 1314,4252 L 2312,4252 2312,1498 1314,1498 1314,4252 Z"/>
 <path fill="rgb(255,66,14)" stroke="none" d="M 12297,4252 L 13296,4252 13296,1425 12297,1425 12297,4252 Z"/>
 <path fill="rgb(255,66,14)" stroke="none" d="M 7305,4252 L 8304,4252 8304,2626 7305,2626 7305,4252 Z"/>
 <path fill="rgb(255,66,14)" stroke="none" d="M 2312,4252 L 3311,4252 3311,2066 2312,2066 2312,4252 Z"/>
 <path fill="rgb(255,211,32)" stroke="none" d="M 13296,4252 L 14295,4252 14295,3134 13296,3134 13296,4252 Z"/>
 <path fill="rgb(255,211,32)" stroke="none" d="M 8304,4252 L 9302,4252 9302,3246 8304,3246 8304,4252 Z"/>
 <path fill="rgb(255,211,32)" stroke="none" d="M 3311,4252 L 4310,4252 4310,3262 3311,3262 3311,4252 Z"/>
 <path fill="rgb(87,157,28)" stroke="none" d="M 14295,4252 L 15293,4252 15293,4133 14295,4133 14295,4252 Z"/>
 <path fill="rgb(87,157,28)" stroke="none" d="M 9302,4252 L 10300,4252 10300,4133 9302,4133 9302,4252 Z"/>
 <path fill="rgb(87,157,28)" stroke="none" d="M 4310,4252 L 5308,4252 5308,4147 4310,4147 4310,4252 Z"/>
 <text class="TextShape"><tspan class="TextParagraph" font-family="Liberation Sans" font-size="353px" font-weight="400"><tspan class="TextPosition" x="2980" y="4820"><tspan fill="rgb(0,0,0)" stroke="none">TAS</tspan></tspan></tspan></text>
 <text class="TextShape"><tspan class="TextParagraph" font-family="Liberation Sans" font-size="353px" font-weight="400"><tspan class="TextPosition" x="7801" y="4820"><tspan fill="rgb(0,0,0)" stroke="none">SWAP</tspan></tspan></tspan></text>
 <text class="TextShape"><tspan class="TextParagraph" font-family="Liberation Sans" font-size="353px" font-weight="400"><tspan class="TextPosition" x="12940" y="4820"><tspan fill="rgb(0,0,0)" stroke="none">CAS</tspan></tspan></tspan></text>
 <text class="TextShape"><tspan class="TextParagraph" font-family="Liberation Sans" font-size="353px" font-weight="400"><tspan class="TextPosition" x="380" y="4373"><tspan fill="rgb(0,0,0)" stroke="none">0</tspan></tspan></tspan></text>
 <text class="TextShape"><tspan class="TextParagraph" font-family="Liberation Sans" font-size="353px" font-weight="400"><tspan class="TextPosition" x="380" y="3933"><tspan fill="rgb(0,0,0)" stroke="none">1</tspan></tspan></tspan></text>
 <text class="TextShape"><tspan class="TextParagraph" font-family="Liberation Sans" font-size="353px" font-weight="400"><tspan class="TextPosition" x="380" y="3494"><tspan fill="rgb(0,0,0)" stroke="none">2</tspan></tspan></tspan></text>
 <text class="TextShape"><tspan class="TextParagraph" font-family="Liberation Sans" font-size="353px" font-weight="400"><tspan class="TextPosition" x="380" y="3054"><tspan fill="rgb(0,0,0)" stroke="none">3</tspan></tspan></tspan></text>
 <text class="TextShape"><tspan class="TextParagraph" font-family="Liberation Sans" font-size="353px" font-weight="400"><tspan class="TextPosition" x="380" y="2615"><tspan fill="rgb(0,0,0)" stroke="none">4</tspan></tspan></tspan></text>
 <text class="TextShape"><tspan class="TextParagraph" font-family="Liberation Sans" font-size="353px" font-weight="400"><tspan class="TextPosition" x="380" y="2175"><tspan fill="rgb(0,0,0)" stroke="none">5</tspan></tspan></tspan></text>
 <text class="TextShape"><tspan class="TextParagraph" font-family="Liberation Sans" font-size="353px" font-weight="400"><tspan class="TextPosition" x="380" y="1736"><tspan fill="rgb(0,0,0)" stroke="none">6</tspan></tspan></tspan></text>
 <text class="TextShape"><tspan class="TextParagraph" font-family="Liberation Sans" font-size="353px" font-weight="400"><tspan class="TextPosition" x="380" y="1296"><tspan fill="rgb(0,0,0)" stroke="none">7</tspan></tspan></tspan></text>
 <text class="TextShape"><tspan class="TextParagraph" font-family="Liberation Sans" font-size="353px" font-weight="400"><tspan class="TextPosition" x="380" y="857"><tspan fill="rgb(0,0,0)" stroke="none">8</tspan></tspan></tspan></text>
 <text class="TextShape"><tspan class="TextParagraph" font-family="Liberation Sans" font-size="353px" font-weight="400"><tspan class="TextPosition" x="380" y="418"><tspan fill="rgb(0,0,0)" stroke="none">9</tspan></tspan></tspan></text>
 <path fill="rgb(0,69,134)" stroke="none" d="M 16375,1858 L 16269,1858 16269,1647 16480,1647 16480,1858 16375,1858 Z"/>
 <path fill="rgb(255,66,14)" stroke="none" d="M 16375,2356 L 16269,2356 16269,2145 16480,2145 16480,2356 16375,2356 Z"/>
 <path fill="rgb(255,211,32)" stroke="none" d="M 16375,2853 L 16269,2853 16269,2642 16480,2642 16480,2853 16375,2853 Z"/>
 <path fill="rgb(87,157,28)" stroke="none" d="M 16375,3351 L 16269,3351 16269,3140 16480,3140 16480,3351 16375,3351 Z"/>
 <text class="TextShape"><tspan class="TextParagraph" font-family="Liberation Sans" font-size="353px" font-weight="400"><tspan class="TextPosition" x="16580" y="1872"><tspan fill="rgb(0,0,0)" stroke="none">simple</tspan></tspan></tspan></text>
 <text class="TextShape"><tspan class="TextParagraph" font-family="Liberation Sans" font-size="353px" font-weight="400"><tspan class="TextPosition" x="16580" y="2370"><tspan fill="rgb(0,0,0)" stroke="none">test</tspan></tspan></tspan></text>
 <text class="TextShape"><tspan class="TextParagraph" font-family="Liberation Sans" font-size="353px" font-weight="400"><tspan class="TextPosition" x="16580" y="2867"><tspan fill="rgb(0,0,0)" stroke="none">yield</tspan></tspan></tspan></text>
 <text class="TextShape"><tspan class="TextParagraph" font-family="Liberation Sans" font-size="353px" font-weight="400"><tspan class="TextPosition" x="16580" y="3365"><tspan fill="rgb(0,0,0)" stroke="none">backoff</tspan></tspan></tspan></text>
</svg>