<?xml version="1.0" encoding="UTF-8"?>
<!DOCTYPE svg PUBLIC "-//W3C//DTD SVG 1.1//EN" "http://www.w3.org/Graphics/SVG/1.1/DTD/svg11.dtd">
<svg width="180mm" height="50mm" viewBox="0 0 18000 5000" version="1.1" baseProfile="tiny" xmlns="http://www.w3.org/2000/svg" stroke-width="28.222" stroke-linejoin="round" xml:space="preserve">
 <path fill="rgb(255,255,255)" stroke="none" d="M 9019,5000 L 19,5000 19,0 18019,0 18019,5000 9019,5000 Z"/>
 <path fill="none" stroke="rgb(179,179,179)" stroke-linejoin="round" d="M 8397,4253 L 1000,4253 1000,299 15793,299 15793,4253 8397,4253 Z"/>
 <path fill="none" stroke="rgb(179,179,179)" stroke-linejoin="round" d="M 15793,4252 L 1000,4252"/>
 <path fill="none" stroke="rgb(179,179,179)" stroke-linejoin="round" d="M 15793,3687 L 1000,3687"/>
 <path fill="none" stroke="rgb(179,179,179)" stroke-linejoin="round" d="M 15793,3122 L 1000,3122"/>
 <path fill="none" stroke="rgb(179,179,179)" stroke-linejoin="round" d="M 15793,2556 L 1000,2556"/>
 <path fill="none" stroke="rgb(179,179,179)" stroke-linejoin="round" d="M 15793,1992 L 1000,1992"/>
 <path fill="none" stroke="rgb(179,179,179)" stroke-linejoin="round" d="M 15793,1427 L 1000,1427"/>
 <path fill="none" stroke="rgb(179,179,179)" stroke-linejoin="round" d="M 15793,862 L 1000,862"/>
 <path fill="none" stroke="rgb(179,179,179)" stroke-linejoin="round" d="M 15793,297 L 1000,297"/>
 <path fill="none" stroke="rgb(179,179,179)" stroke-linejoin="round" d="M 1000,4402 L 1000,4252"/>
 <path fill="none" stroke="rgb(179,179,179)" stroke-linejoin="round" d="M 1000,4402 L 1000,4252"/>
 <path fill="none" stroke="rgb(179,179,179)" stroke-linejoin="round" d="M 5931,4402 L 5931,4252"/>
 <path fill="none" stroke="rgb(179,179,179)" stroke-linejoin="round" d="M 5931,4402 L 5931,4252"/>
 <path fill="none" stroke="rgb(179,179,179)" stroke-linejoin="round" d="M 10861,4402 L 10861,4252"/>
 <path fill="none" stroke="rgb(179,179,179)" stroke-linejoin="round" d="M 10861,4402 L 10861,4252"/>
 <path fill="none" stroke="rgb(179,179,179)" stroke-linejoin="round" d="M 15793,4402 L 15793,4252"/>
 <path fill="none" stroke="rgb(179,179,179)" stroke-linejoin="round" d="M 15793,4402 L 15793,4252"/>
 <path fill="none" stroke="rgb(179,179,179)" stroke-linejoin="round" d="M 1000,4252 L 15793,4252"/>
 <path fill="none" stroke="rgb(179,179,179)" stroke-linejoin="round" d="M 850,4252 L 1000,4252"/>
 <path fill="none" stroke="rgb(179,179,179)" stroke-linejoin="round" d="M 850,4252 L 1000,4252"/>
 <path fill="none" stroke="rgb(179,179,179)" stroke-linejoin="round" d="M 850,3687 L 1000,3687"/>
 <path fill="none" stroke="rgb(179,179,179)" stroke-linejoin="round" d="M 850,3687 L 1000,3687"/>
 <path fill="none" stroke="rgb(179,179,179)" stroke-linejoin="round" d="M 850,3122 L 1000,3122"/>
 <path fill="none" stroke="rgb(179,179,179)" stroke-linejoin="round" d="M 850,3122 L 1000,3122"/>
 <path fill="none" stroke="rgb(179,179,179)" stroke-linejoin="round" d="M 850,2557 L 1000,2557"/>
 <path fill="none" stroke="rgb(179,179,179)" stroke-linejoin="round" d="M 850,2557 L 1000,2557"/>
 <path fill="none" stroke="rgb(179,179,179)" stroke-linejoin="round" d="M 850,1992 L 1000,1992"/>
 <path fill="none" stroke="rgb(179,179,179)" stroke-linejoin="round" d="M 850,1992 L 1000,1992"/>
 <path fill="none" stroke="rgb(179,179,179)" stroke-linejoin="round" d="M 850,1427 L 1000,1427"/>
 <path fill="none" stroke="rgb(179,179,179)" stroke-linejoin="round" d="M 850,1427 L 1000,1427"/>
 <path fill="none" stroke="rgb(179,179,179)" stroke-linejoin="round" d="M 850,862 L 1000,862"/>
 <path fill="none" stroke="rgb(179,179,179)" stroke-linejoin="round" d="M 850,862 L 1000,862"/>
 <path fill="none" stroke="rgb(179,179,179)" stroke-linejoin="round" d="M 850,297 L 1000,297"/>
 <path fill="none" stroke="rgb(179,179,179)" stroke-linejoin="round" d="M 850,297 L 1000,297"/>
 <path fill="none" stroke="rgb(179,179,179)" stroke-linejoin="round" d="M 1000,4252 L 1000,297"/>
 <path fill="rgb(0,69,134)" stroke="none" d="M 11354,4252 L 12341,4252 12341,2034 11354,2034 11354,4252 Z"/>
 <path fill="rgb(0,69,134)" stroke="none" d="M 6424,4252 L 7410,4252 7410,1103 6424,1103 6424,4252 Z"/>
 <path fill="rgb(0,69,134)" stroke="none" d="M 1493,4252 L 2479,4252 2479,1018 1493,1018 1493,4252 Z"/>
 <path fill="rgb(255,66,14)" stroke="none" d="M 12341,4252 L 13327,4252 13327,2530 12341,2530 12341,4252 Z"/>
 <path fill="rgb(255,66,14)" stroke="none" d="M 7410,4252 L 8397,4252 8397,1159 7410,1159 7410,4252 Z"/>
 <path fill="rgb(255,66,14)" stroke="none" d="M 2479,4252 L 3465,4252 3465,1244 2479,1244 2479,4252 Z"/>
 <path fill="rgb(255,211,32)" stroke="none" d="M 13327,4252 L 14313,4252 14313,2581 13327,2581 13327,4252 Z"/>
 <path fill="rgb(255,211,32)" stroke="none" d="M 8397,4252 L 9382,4252 9382,2508 8397,2508 8397,4252 Z"/>
 <path fill="rgb(255,211,32)" stroke="none" d="M 3465,4252 L 4451,4252 4451,2858 3465,2858 3465,4252 Z"/>
 <path fill="rgb(87,157,28)" stroke="none" d="M 14313,4252 L 15299,4252 15299,3575 14313,3575 14313,4252 Z"/>
 <path fill="rgb(87,157,28)" stroke="none" d="M 9382,4252 L 10368,4252 10368,3559 9382,3559 9382,4252 Z"/>
 <path fill="rgb(87,157,28)" stroke="none" d="M 4451,4252 L 5438,4252 5438,3720 4451,3720 4451,4252 Z"/>
 <text class="TextShape"><tspan class="TextParagraph" font-family="Liberation Sans" font-size="353px" font-weight="400"><tspan class="TextPosition" x="3134" y="4820"><tspan fill="rgb(0,0,0)" stroke="none">TAS</tspan></tspan></tspan></text>
 <text class="TextShape"><tspan class="TextParagraph" font-family="Liberation Sans" font-size="353px" font-weight="400"><tspan class="TextPosition" x="7894" y="4820"><tspan fill="rgb(0,0,0)" stroke="none">SWAP</tspan></tspan></tspan></text>
 <text class="TextShape"><tspan class="TextParagraph" font-family="Liberation Sans" font-size="353px" font-weight="400"><tspan class="TextPosition" x="12971" y="4820"><tspan fill="rgb(0,0,0)" stroke="none">CAS</tspan></tspan></tspan></text>
 <text class="TextShape"><tspan class="TextParagraph" font-family="Liberation Sans" font-size="353px" font-weight="400"><tspan class="TextPosition" x="565" y="4373"><tspan fill="rgb(0,0,0)" stroke="none">0</tspan></tspan></tspan></text>
 <text class="TextShape"><tspan class="TextParagraph" font-family="Liberation Sans" font-size="353px" font-weight="400"><tspan class="TextPosition" x="565" y="3808"><tspan fill="rgb(0,0,0)" stroke="none">2</tspan></tspan></tspan></text>
 <text class="TextShape"><tspan class="TextParagraph" font-family="Liberation Sans" font-size="353px" font-weight="400"><tspan class="TextPosition" x="565" y="3243"><tspan fill="rgb(0,0,0)" stroke="none">4</tspan></tspan></tspan></text>
 <text class="TextShape"><tspan class="TextParagraph" font-family="Liberation Sans" font-size="353px" font-weight="400"><tspan class="TextPosition" x="565" y="2678"><tspan fill="rgb(0,0,0)" stroke="none">6</tspan></tspan></tspan></text>
 <text class="TextShape"><tspan class="TextParagraph" font-family="Liberation Sans" font-size="353px" font-weight="400"><tspan class="TextPosition" x="565" y="2112"><tspan fill="rgb(0,0,0)" stroke="none">8</tspan></tspan></tspan></text>
 <text class="TextShape"><tspan class="TextParagraph" font-family="Liberation Sans" font-size="353px" font-weight="400"><tspan class="TextPosition" x="380" y="1547"><tspan fill="rgb(0,0,0)" stroke="none">10</tspan></tspan></tspan></text>
 <text class="TextShape"><tspan class="TextParagraph" font-family="Liberation Sans" font-size="353px" font-weight="400"><tspan class="TextPosition" x="380" y="982"><tspan fill="rgb(0,0,0)" stroke="none">12</tspan></tspan></tspan></text>
 <text class="TextShape"><tspan class="TextParagraph" font-family="Liberation Sans" font-size="353px" font-weight="400"><tspan class="TextPosition" x="380" y="417"><tspan fill="rgb(0,0,0)" stroke="none">14</tspan></tspan></tspan></text>
 <path fill="rgb(0,69,134)" stroke="none" d="M 16375,1858 L 16269,1858 16269,1647 16480,1647 16480,1858 16375,1858 Z"/>
 <path fill="rgb(255,66,14)" stroke="none" d="M 16375,2356 L 16269,2356 16269,2145 16480,2145 16480,2356 16375,2356 Z"/>
 <path fill="rgb(255,211,32)" stroke="none" d="M 16375,2853 L 16269,2853 16269,2642 16480,2642 16480,2853 16375,2853 Z"/>
 <path fill="rgb(87,157,28)" stroke="none" d="M 16375,3351 L 16269,3351 16269,3140 16480,3140 16480,3351 16375,3351 Z"/>
 <text class="TextShape"><tspan class="TextParagraph" font-family="Liberation Sans" font-size="353px" font-weight="400"><tspan class="TextPosition" x="16580" y="1872"><tspan fill="rgb(0,0,0)" stroke="none">simple</tspan></tspan></tspan></text>
 <text class="TextShape"><tspan class="TextParagraph" font-family="Liberation Sans" font-size="353px" font-weight="400"><tspan class="TextPosition" x="16580" y="2370"><tspan fill="rgb(0,0,0)" stroke="none">test</tspan></tspan></tspan></text>
 <text class="TextShape"><tspan class="TextParagraph" font-family="Liberation Sans" font-size="353px" font-weight="400"><tspan class="TextPosition" x="16580" y="2867"><tspan fill="rgb(0,0,0)" stroke="none">yield</tspan></tspan></tspan></text>
 <text class="TextShape"><tspan class="TextParagraph" font-family="Liberation Sans" font-size="353px" font-weight="400"><tspan class="TextPosition" x="16580" y="3365"><tspan fill="rgb(0,0,0)" stroke="none">backoff</tspan></tspan></tspan></text>
</svg>