<?xml version="1.0" encoding="UTF-8"?>
<!DOCTYPE svg PUBLIC "-//W3C//DTD SVG 1.1//EN" "http://www.w3.org/Graphics/SVG/1.1/DTD/svg11.dtd">
<svg width="180mm" height="50mm" viewBox="0 0 18000 5000" version="1.1" baseProfile="tiny" xmlns="http://www.w3.org/2000/svg" stroke-width="28.222" stroke-linejoin="round" xml:space="preserve">
 <path fill="rgb(255,255,255)" stroke="none" d="M 9000,5000 L 0,5000 0,0 18000,0 18000,5000 9000,5000 Z"/>
 <path fill="none" stroke="rgb(179,179,179)" stroke-linejoin="round" d="M 8285,4253 L 796,4253 796,299 15774,299 15774,4253 8285,4253 Z"/>
 <path fill="none" stroke="rgb(179,179,179)" stroke-linejoin="round" d="M 15774,4252 L 796,4252"/>
 <path fill="none" stroke="rgb(179,179,179)" stroke-linejoin="round" d="M 15774,3461 L 796,3461"/>
 <path fill="none" stroke="rgb(179,179,179)" stroke-linejoin="round" d="M 15774,2670 L 796,2670"/>
 <path fill="none" stroke="rgb(179,179,179)" stroke-linejoin="round" d="M 15774,1880 L 796,1880"/>
 <path fill="none" stroke="rgb(179,179,179)" stroke-linejoin="round" d="M 15774,1089 L 796,1089"/>
 <path fill="none" stroke="rgb(179,179,179)" stroke-linejoin="round" d="M 15774,298 L 796,298"/>
 <path fill="none" stroke="rgb(179,179,179)" stroke-linejoin="round" d="M 796,4402 L 796,4252"/>
 <path fill="none" stroke="rgb(179,179,179)" stroke-linejoin="round" d="M 796,4402 L 796,4252"/>
 <path fill="none" stroke="rgb(179,179,179)" stroke-linejoin="round" d="M 5789,4402 L 5789,4252"/>
 <path fill="none" stroke="rgb(179,179,179)" stroke-linejoin="round" d="M 5789,4402 L 5789,4252"/>
 <path fill="none" stroke="rgb(179,179,179)" stroke-linejoin="round" d="M 10781,4402 L 10781,4252"/>
 <path fill="none" stroke="rgb(179,179,179)" stroke-linejoin="round" d="M 10781,4402 L 10781,4252"/>
 <path fill="none" stroke="rgb(179,179,179)" stroke-linejoin="round" d="M 15774,4402 L 15774,4252"/>
 <path fill="none" stroke="rgb(179,179,179)" stroke-linejoin="round" d="M 15774,4402 L 15774,4252"/>
 <path fill="none" stroke="rgb(179,179,179)" stroke-linejoin="round" d="M 796,4252 L 15774,4252"/>
 <path fill="none" stroke="rgb(179,179,179)" stroke-linejoin="round" d="M 646,4252 L 796,4252"/>
 <path fill="none" stroke="rgb(179,179,179)" stroke-linejoin="round" d="M 646,4252 L 796,4252"/>
 <path fill="none" stroke="rgb(179,179,179)" stroke-linejoin="round" d="M 646,3461 L 796,3461"/>
 <path fill="none" stroke="rgb(179,179,179)" stroke-linejoin="round" d="M 646,3461 L 796,3461"/>
 <path fill="none" stroke="rgb(179,179,179)" stroke-linejoin="round" d="M 646,2670 L 796,2670"/>
 <path fill="none" stroke="rgb(179,179,179)" stroke-linejoin="round" d="M 646,2670 L 796,2670"/>
 <path fill="none" stroke="rgb(179,179,179)" stroke-linejoin="round" d="M 646,1879 L 796,1879"/>
 <path fill="none" stroke="rgb(179,179,179)" stroke-linejoin="round" d="M 646,1879 L 796,1879"/>
 <path fill="none" stroke="rgb(179,179,179)" stroke-linejoin="round" d="M 646,1089 L 796,1089"/>
 <path fill="none" stroke="rgb(179,179,179)" stroke-linejoin="round" d="M 646,1089 L 796,1089"/>
 <path fill="none" stroke="rgb(179,179,179)" stroke-linejoin="round" d="M 646,298 L 796,298"/>
 <path fill="none" stroke="rgb(179,179,179)" stroke-linejoin="round" d="M 646,298 L 796,298"/>
 <path fill="none" stroke="rgb(179,179,179)" stroke-linejoin="round" d="M 796,4252 L 796,298"/>
 <path fill="rgb(0,69,134)" stroke="none" d="M 11280,4252 L 12278,4252 12278,812 11280,812 11280,4252 Z"/>
 <path fill="rgb(0,69,134)" stroke="none" d="M 6288,4252 L 7286,4252 7286,3056 6288,3056 6288,4252 Z"/>
 <path fill="rgb(0,69,134)" stroke="none" d="M 1295,4252 L 2293,4252 2293,3116 1295,3116 1295,4252 Z"/>
 <path fill="rgb(255,66,14)" stroke="none" d="M 12278,4252 L 13277,4252 13277,3510 12278,3510 12278,4252 Z"/>
 <path fill="rgb(255,66,14)" stroke="none" d="M 7286,4252 L 8285,4252 8285,3492 7286,3492 7286,4252 Z"/>
 <path fill="rgb(255,66,14)" stroke="none" d="M 2293,4252 L 3292,4252 3292,3699 2293,3699 2293,4252 Z"/>
 <path fill="rgb(255,211,32)" stroke="none" d="M 13277,4252 L 14276,4252 14276,4040 13277,4040 13277,4252 Z"/>
 <path fill="rgb(255,211,32)" stroke="none" d="M 8285,4252 L 9283,4252 9283,4036 8285,4036 8285,4252 Z"/>
 <path fill="rgb(255,211,32)" stroke="none" d="M 3292,4252 L 4291,4252 4291,4051 3292,4051 3292,4252 Z"/>
 <path fill="rgb(87,157,28)" stroke="none" d="M 14276,4252 L 15274,4252 15274,4000 14276,4000 14276,4252 Z"/>
 <path fill="rgb(87,157,28)" stroke="none" d="M 9283,4252 L 10281,4252 10281,3984 9283,3984 9283,4252 Z"/>
 <path fill="rgb(87,157,28)" stroke="none" d="M 4291,4252 L 5289,4252 5289,4002 4291,4002 4291,4252 Z"/>
 <text class="TextShape"><tspan class="TextParagraph" font-family="Liberation Sans" font-size="353px" font-weight="400"><tspan class="TextPosition" x="2961" y="4820"><tspan fill="rgb(0,0,0)" stroke="none">TAS</tspan></tspan></tspan></text>
 <text class="TextShape"><tspan class="TextParagraph" font-family="Liberation Sans" font-size="353px" font-weight="400"><tspan class="TextPosition" x="7782" y="4820"><tspan fill="rgb(0,0,0)" stroke="none">SWAP</tspan></tspan></tspan></text>
 <text class="TextShape"><tspan class="TextParagraph" font-family="Liberation Sans" font-size="353px" font-weight="400"><tspan class="TextPosition" x="12921" y="4820"><tspan fill="rgb(0,0,0)" stroke="none">CAS</tspan></tspan></tspan></text>
 <text class="TextShape"><tspan class="TextParagraph" font-family="Liberation Sans" font-size="353px" font-weight="400"><tspan class="TextPosition" x="361" y="4373"><tspan fill="rgb(0,0,0)" stroke="none">0</tspan></tspan></tspan></text>
 <text class="TextShape"><tspan class="TextParagraph" font-family="Liberation Sans" font-size="353px" font-weight="400"><tspan class="TextPosition" x="361" y="3582"><tspan fill="rgb(0,0,0)" stroke="none">1</tspan></tspan></tspan></text>
 <text class="TextShape"><tspan class="TextParagraph" font-family="Liberation Sans" font-size="353px" font-weight="400"><tspan class="TextPosition" x="361" y="2791"><tspan fill="rgb(0,0,0)" stroke="none">2</tspan></tspan></tspan></text>
 <text class="TextShape"><tspan class="TextParagraph" font-family="Liberation Sans" font-size="353px" font-weight="400"><tspan class="TextPosition" x="361" y="1999"><tspan fill="rgb(0,0,0)" stroke="none">3</tspan></tspan></tspan></text>
 <text class="TextShape"><tspan class="TextParagraph" font-family="Liberation Sans" font-size="353px" font-weight="400"><tspan class="TextPosition" x="361" y="1209"><tspan fill="rgb(0,0,0)" stroke="none">4</tspan></tspan></tspan></text>
 <text class="TextShape"><tspan class="TextParagraph" font-family="Liberation Sans" font-size="353px" font-weight="400"><tspan class="TextPosition" x="361" y="418"><tspan fill="rgb(0,0,0)" stroke="none">5</tspan></tspan></tspan></text>
 <path fill="rgb(0,69,134)" stroke="none" d="M 16356,1858 L 16250,1858 16250,1647 16461,1647 16461,1858 16356,1858 Z"/>
 <path fill="rgb(255,66,14)" stroke="none" d="M 16356,2356 L 16250,2356 16250,2145 16461,2145 16461,2356 16356,2356 Z"/>
 <path fill="rgb(255,211,32)" stroke="none" d="M 16356,2853 L 16250,2853 16250,2642 16461,2642 16461,2853 16356,2853 Z"/>
 <path fill="rgb(87,157,28)" stroke="none" d="M 16356,3351 L 16250,3351 16250,3140 16461,3140 16461,3351 16356,3351 Z"/>
 <text class="TextShape"><tspan class="TextParagraph" font-family="Liberation Sans" font-size="353px" font-weight="400"><tspan class="TextPosition" x="16561" y="1872"><tspan fill="rgb(0,0,0)" stroke="none">simple</tspan></tspan></tspan></text>
 <text class="TextShape"><tspan class="TextParagraph" font-family="Liberation Sans" font-size="353px" font-weight="400"><tspan class="TextPosition" x="16561" y="2370"><tspan fill="rgb(0,0,0)" stroke="none">test</tspan></tspan></tspan></text>
 <text class="TextShape"><tspan class="TextParagraph" font-family="Liberation Sans" font-size="353px" font-weight="400"><tspan class="TextPosition" x="16561" y="2867"><tspan fill="rgb(0,0,0)" stroke="none">yield</tspan></tspan></tspan></text>
 <text class="TextShape"><tspan class="TextParagraph" font-family="Liberation Sans" font-size="353px" font-weight="400"><tspan class="TextPosition" x="16561" y="3365"><tspan fill="rgb(0,0,0)" stroke="none">backoff</tspan></tspan></tspan></text>
</svg>