<?xml version="1.0" encoding="UTF-8"?>
<!DOCTYPE svg PUBLIC "-//W3C//DTD SVG 1.1//EN" "http://www.w3.org/Graphics/SVG/1.1/DTD/svg11.dtd">
<svg width="180mm" height="50mm" viewBox="0 0 18000 5000" version="1.1" baseProfile="tiny" xmlns="http://www.w3.org/2000/svg" stroke-width="28.222" stroke-linejoin="round" xml:space="preserve">
 <path fill="rgb(255,255,255)" stroke="none" d="M 9040,5000 L 40,5000 40,0 18040,0 18040,5000 9040,5000 Z"/>
 <path fill="none" stroke="rgb(179,179,179)" stroke-linejoin="round" d="M 8563,4253 L 1127,4253 1127,299 15999,299 15999,4253 8563,4253 Z"/>
 <path fill="none" stroke="rgb(179,179,179)" stroke-linejoin="round" d="M 15999,4252 L 1127,4252"/>
 <path fill="none" stroke="rgb(179,179,179)" stroke-linejoin="round" d="M 15999,3263 L 1127,3263"/>
 <path fill="none" stroke="rgb(179,179,179)" stroke-linejoin="round" d="M 15999,2275 L 1127,2275"/>
 <path fill="none" stroke="rgb(179,179,179)" stroke-linejoin="round" d="M 15999,1286 L 1127,1286"/>
 <path fill="none" stroke="rgb(179,179,179)" stroke-linejoin="round" d="M 15999,298 L 1127,298"/>
 <path fill="none" stroke="rgb(179,179,179)" stroke-linejoin="round" d="M 1127,4402 L 1127,4252"/>
 <path fill="none" stroke="rgb(179,179,179)" stroke-linejoin="round" d="M 1127,4402 L 1127,4252"/>
 <path fill="none" stroke="rgb(179,179,179)" stroke-linejoin="round" d="M 8563,4402 L 8563,4252"/>
 <path fill="none" stroke="rgb(179,179,179)" stroke-linejoin="round" d="M 8563,4402 L 8563,4252"/>
 <path fill="none" stroke="rgb(179,179,179)" stroke-linejoin="round" d="M 15999,4402 L 15999,4252"/>
 <path fill="none" stroke="rgb(179,179,179)" stroke-linejoin="round" d="M 15999,4402 L 15999,4252"/>
 <path fill="none" stroke="rgb(179,179,179)" stroke-linejoin="round" d="M 1127,4252 L 15999,4252"/>
 <path fill="none" stroke="rgb(179,179,179)" stroke-linejoin="round" d="M 977,4252 L 1127,4252"/>
 <path fill="none" stroke="rgb(179,179,179)" stroke-linejoin="round" d="M 977,4252 L 1127,4252"/>
 <path fill="none" stroke="rgb(179,179,179)" stroke-linejoin="round" d="M 977,3263 L 1127,3263"/>
 <path fill="none" stroke="rgb(179,179,179)" stroke-linejoin="round" d="M 977,3263 L 1127,3263"/>
 <path fill="none" stroke="rgb(179,179,179)" stroke-linejoin="round" d="M 977,2275 L 1127,2275"/>
 <path fill="none" stroke="rgb(179,179,179)" stroke-linejoin="round" d="M 977,2275 L 1127,2275"/>
 <path fill="none" stroke="rgb(179,179,179)" stroke-linejoin="round" d="M 977,1286 L 1127,1286"/>
 <path fill="none" stroke="rgb(179,179,179)" stroke-linejoin="round" d="M 977,1286 L 1127,1286"/>
 <path fill="none" stroke="rgb(179,179,179)" stroke-linejoin="round" d="M 977,298 L 1127,298"/>
 <path fill="none" stroke="rgb(179,179,179)" stroke-linejoin="round" d="M 977,298 L 1127,298"/>
 <path fill="none" stroke="rgb(179,179,179)" stroke-linejoin="round" d="M 1127,4252 L 1127,298"/>
 <path fill="rgb(0,69,134)" stroke="none" d="M 9801,4252 L 12280,4252 12280,2251 9801,2251 9801,4252 Z"/>
 <path fill="rgb(0,69,134)" stroke="none" d="M 2366,4252 L 4845,4252 4845,901 2366,901 2366,4252 Z"/>
 <path fill="rgb(255,66,14)" stroke="none" d="M 12280,4252 L 14759,4252 14759,2299 12280,2299 12280,4252 Z"/>
 <path fill="rgb(255,66,14)" stroke="none" d="M 4845,4252 L 7324,4252 7324,1009 4845,1009 4845,4252 Z"/>
 <text class="TextShape"><tspan class="TextParagraph" font-family="Liberation Sans" font-size="353px" font-weight="400"><tspan class="TextPosition" x="4488" y="4820"><tspan fill="rgb(0,0,0)" stroke="none">CPU</tspan></tspan></tspan></text>
 <text class="TextShape"><tspan class="TextParagraph" font-family="Liberation Sans" font-size="353px" font-weight="400"><tspan class="TextPosition" x="11871" y="4820"><tspan fill="rgb(0,0,0)" stroke="none">clock</tspan></tspan></tspan></text>
 <text class="TextShape"><tspan class="TextParagraph" font-family="Liberation Sans" font-size="353px" font-weight="400"><tspan class="TextPosition" x="692" y="4373"><tspan fill="rgb(0,0,0)" stroke="none">0</tspan></tspan></tspan></text>
 <text class="TextShape"><tspan class="TextParagraph" font-family="Liberation Sans" font-size="353px" font-weight="400"><tspan class="TextPosition" x="401" y="3384"><tspan fill="rgb(0,0,0)" stroke="none">0.5</tspan></tspan></tspan></text>
 <text class="TextShape"><tspan class="TextParagraph" font-family="Liberation Sans" font-size="353px" font-weight="400"><tspan class="TextPosition" x="692" y="2395"><tspan fill="rgb(0,0,0)" stroke="none">1</tspan></tspan></tspan></text>
 <text class="TextShape"><tspan class="TextParagraph" font-family="Liberation Sans" font-size="353px" font-weight="400"><tspan class="TextPosition" x="401" y="1406"><tspan fill="rgb(0,0,0)" stroke="none">1.5</tspan></tspan></tspan></text>
 <text class="TextShape"><tspan class="TextParagraph" font-family="Liberation Sans" font-size="353px" font-weight="400"><tspan class="TextPosition" x="692" y="418"><tspan fill="rgb(0,0,0)" stroke="none">2</tspan></tspan></tspan></text>
 <path fill="rgb(0,69,134)" stroke="none" d="M 16581,2356 L 16475,2356 16475,2145 16686,2145 16686,2356 16581,2356 Z"/>
 <path fill="rgb(255,66,14)" stroke="none" d="M 16581,2853 L 16475,2853 16475,2642 16686,2642 16686,2853 16581,2853 Z"/>
 <text class="TextShape"><tspan class="TextParagraph" font-family="Liberation Sans" font-size="353px" font-weight="400"><tspan class="TextPosition" x="16786" y="2370"><tspan fill="rgb(0,0,0)" stroke="none">native</tspan></tspan></tspan></text>
 <text class="TextShape"><tspan class="TextParagraph" font-family="Liberation Sans" font-size="353px" font-weight="400"><tspan class="TextPosition" x="16786" y="2867"><tspan fill="rgb(0,0,0)" stroke="none">Lock</tspan></tspan></tspan></text>
</svg>