<?xml version="1.0" encoding="UTF-8"?>
<!DOCTYPE svg PUBLIC "-//W3C//DTD SVG 1.1//EN" "http://www.w3.org/Graphics/SVG/1.1/DTD/svg11.dtd">
<svg width="180mm" height="50mm" viewBox="0 0 18000 5000" version="1.1" baseProfile="tiny" xmlns="http://www.w3.org/2000/svg" stroke-width="28.222" stroke-linejoin="round" xml:space="preserve">
 <path fill="rgb(255,255,255)" stroke="none" d="M 9000,5000 L 0,5000 0,0 18000,0 18000,5000 9000,5000 Z"/>
 <path fill="none" stroke="rgb(179,179,179)" stroke-linejoin="round" d="M 8523,4253 L 981,4253 981,299 16065,299 16065,4253 8523,4253 Z"/>
 <path fill="none" stroke="rgb(179,179,179)" stroke-linejoin="round" d="M 16065,4252 L 981,4252"/>
 <path fill="none" stroke="rgb(179,179,179)" stroke-linejoin="round" d="M 16065,3687 L 981,3687"/>
 <path fill="none" stroke="rgb(179,179,179)" stroke-linejoin="round" d="M 16065,3122 L 981,3122"/>
 <path fill="none" stroke="rgb(179,179,179)" stroke-linejoin="round" d="M 16065,2557 L 981,2557"/>
 <path fill="none" stroke="rgb(179,179,179)" stroke-linejoin="round" d="M 16065,1992 L 981,1992"/>
 <path fill="none" stroke="rgb(179,179,179)" stroke-linejoin="round" d="M 16065,1427 L 981,1427"/>
 <path fill="none" stroke="rgb(179,179,179)" stroke-linejoin="round" d="M 16065,862 L 981,862"/>
 <path fill="none" stroke="rgb(179,179,179)" stroke-linejoin="round" d="M 16065,297 L 981,297"/>
 <path fill="none" stroke="rgb(179,179,179)" stroke-linejoin="round" d="M 981,4402 L 981,4252"/>
 <path fill="none" stroke="rgb(179,179,179)" stroke-linejoin="round" d="M 981,4402 L 981,4252"/>
 <path fill="none" stroke="rgb(179,179,179)" stroke-linejoin="round" d="M 8523,4402 L 8523,4252"/>
 <path fill="none" stroke="rgb(179,179,179)" stroke-linejoin="round" d="M 8523,4402 L 8523,4252"/>
 <path fill="none" stroke="rgb(179,179,179)" stroke-linejoin="round" d="M 16065,4402 L 16065,4252"/>
 <path fill="none" stroke="rgb(179,179,179)" stroke-linejoin="round" d="M 16065,4402 L 16065,4252"/>
 <path fill="none" stroke="rgb(179,179,179)" stroke-linejoin="round" d="M 981,4252 L 16065,4252"/>
 <path fill="none" stroke="rgb(179,179,179)" stroke-linejoin="round" d="M 831,4252 L 981,4252"/>
 <path fill="none" stroke="rgb(179,179,179)" stroke-linejoin="round" d="M 831,4252 L 981,4252"/>
 <path fill="none" stroke="rgb(179,179,179)" stroke-linejoin="round" d="M 831,3687 L 981,3687"/>
 <path fill="none" stroke="rgb(179,179,179)" stroke-linejoin="round" d="M 831,3687 L 981,3687"/>
 <path fill="none" stroke="rgb(179,179,179)" stroke-linejoin="round" d="M 831,3122 L 981,3122"/>
 <path fill="none" stroke="rgb(179,179,179)" stroke-linejoin="round" d="M 831,3122 L 981,3122"/>
 <path fill="none" stroke="rgb(179,179,179)" stroke-linejoin="round" d="M 831,2557 L 981,2557"/>
 <path fill="none" stroke="rgb(179,179,179)" stroke-linejoin="round" d="M 831,2557 L 981,2557"/>
 <path fill="none" stroke="rgb(179,179,179)" stroke-linejoin="round" d="M 831,1993 L 981,1993"/>
 <path fill="none" stroke="rgb(179,179,179)" stroke-linejoin="round" d="M 831,1993 L 981,1993"/>
 <path fill="none" stroke="rgb(179,179,179)" stroke-linejoin="round" d="M 831,1427 L 981,1427"/>
 <path fill="none" stroke="rgb(179,179,179)" stroke-linejoin="round" d="M 831,1427 L 981,1427"/>
 <path fill="none" stroke="rgb(179,179,179)" stroke-linejoin="round" d="M 831,863 L 981,863"/>
 <path fill="none" stroke="rgb(179,179,179)" stroke-linejoin="round" d="M 831,863 L 981,863"/>
 <path fill="none" stroke="rgb(179,179,179)" stroke-linejoin="round" d="M 831,297 L 981,297"/>
 <path fill="none" stroke="rgb(179,179,179)" stroke-linejoin="round" d="M 831,297 L 981,297"/>
 <path fill="none" stroke="rgb(179,179,179)" stroke-linejoin="round" d="M 981,4252 L 981,297"/>
 <path fill="rgb(0,69,134)" stroke="none" d="M 9779,4252 L 12293,4252 12293,836 9779,836 9779,4252 Z"/>
 <path fill="rgb(0,69,134)" stroke="none" d="M 2238,4252 L 4752,4252 4752,2101 2238,2101 2238,4252 Z"/>
 <path fill="rgb(255,66,14)" stroke="none" d="M 12293,4252 L 14807,4252 14807,2280 12293,2280 12293,4252 Z"/>
 <path fill="rgb(255,66,14)" stroke="none" d="M 4752,4252 L 7266,4252 7266,2698 4752,2698 4752,4252 Z"/>
 <text class="TextShape"><tspan class="TextParagraph" font-family="Liberation Sans, sans-serif" font-size="353px" font-weight="400"><tspan class="TextPosition" x="4289" y="4820"><tspan fill="rgb(0,0,0)" stroke="none">native</tspan></tspan></tspan></text>
 <text class="TextShape"><tspan class="TextParagraph" font-family="Liberation Sans, sans-serif" font-size="353px" font-weight="400"><tspan class="TextPosition" x="11513" y="4820"><tspan fill="rgb(0,0,0)" stroke="none">conditions</tspan></tspan></tspan></text>
 <text class="TextShape"><tspan class="TextParagraph" font-family="Liberation Sans, sans-serif" font-size="353px" font-weight="400"><tspan class="TextPosition" x="546" y="4373"><tspan fill="rgb(0,0,0)" stroke="none">0</tspan></tspan></tspan></text>
 <text class="TextShape"><tspan class="TextParagraph" font-family="Liberation Sans, sans-serif" font-size="353px" font-weight="400"><tspan class="TextPosition" x="546" y="3808"><tspan fill="rgb(0,0,0)" stroke="none">5</tspan></tspan></tspan></text>
 <text class="TextShape"><tspan class="TextParagraph" font-family="Liberation Sans, sans-serif" font-size="353px" font-weight="400"><tspan class="TextPosition" x="361" y="3243"><tspan fill="rgb(0,0,0)" stroke="none">10</tspan></tspan></tspan></text>
 <text class="TextShape"><tspan class="TextParagraph" font-family="Liberation Sans, sans-serif" font-size="353px" font-weight="400"><tspan class="TextPosition" x="361" y="2678"><tspan fill="rgb(0,0,0)" stroke="none">15</tspan></tspan></tspan></text>
 <text class="TextShape"><tspan class="TextParagraph" font-family="Liberation Sans, sans-serif" font-size="353px" font-weight="400"><tspan class="TextPosition" x="361" y="2113"><tspan fill="rgb(0,0,0)" stroke="none">20</tspan></tspan></tspan></text>
 <text class="TextShape"><tspan class="TextParagraph" font-family="Liberation Sans, sans-serif" font-size="353px" font-weight="400"><tspan class="TextPosition" x="361" y="1547"><tspan fill="rgb(0,0,0)" stroke="none">25</tspan></tspan></tspan></text>
 <text class="TextShape"><tspan class="TextParagraph" font-family="Liberation Sans, sans-serif" font-size="353px" font-weight="400"><tspan class="TextPosition" x="361" y="983"><tspan fill="rgb(0,0,0)" stroke="none">30</tspan></tspan></tspan></text>
 <text class="TextShape"><tspan class="TextParagraph" font-family="Liberation Sans, sans-serif" font-size="353px" font-weight="400"><tspan class="TextPosition" x="361" y="417"><tspan fill="rgb(0,0,0)" stroke="none">35</tspan></tspan></tspan></text>
 <path fill="rgb(0,69,134)" stroke="none" d="M 16647,2356 L 16541,2356 16541,2145 16752,2145 16752,2356 16647,2356 Z"/>
 <path fill="rgb(255,66,14)" stroke="none" d="M 16647,2853 L 16541,2853 16541,2642 16752,2642 16752,2853 16647,2853 Z"/>
 <text class="TextShape"><tspan class="TextParagraph" font-family="Liberation Sans, sans-serif" font-size="353px" font-weight="400"><tspan class="TextPosition" x="16852" y="2370"><tspan fill="rgb(0,0,0)" stroke="none">CPU</tspan></tspan></tspan></text>
 <text class="TextShape"><tspan class="TextParagraph" font-family="Liberation Sans, sans-serif" font-size="353px" font-weight="400"><tspan class="TextPosition" x="16852" y="2867"><tspan fill="rgb(0,0,0)" stroke="none">clock</tspan></tspan></tspan></text>
</svg>