<?xml version="1.0" encoding="UTF-8"?>
<!DOCTYPE svg PUBLIC "-//W3C//DTD SVG 1.1//EN" "http://www.w3.org/Graphics/SVG/1.1/DTD/svg11.dtd">
<svg width="180mm" height="50mm" viewBox="0 0 18000 5000" version="1.1" baseProfile="tiny" xmlns="http://www.w3.org/2000/svg" stroke-width="28.222" stroke-linejoin="round" xml:space="preserve">
 <path fill="rgb(255,255,255)" stroke="none" d="M 9014,5000 L 14,5000 14,0 18014,0 18014,5000 9014,5000 Z"/>
 <path fill="none" stroke="rgb(179,179,179)" stroke-linejoin="round" d="M 7770,4253 L 995,4253 995,299 14544,299 14544,4253 7770,4253 Z"/>
 <path fill="none" stroke="rgb(179,179,179)" stroke-linejoin="round" d="M 14544,4252 L 995,4252"/>
 <path fill="none" stroke="rgb(179,179,179)" stroke-linejoin="round" d="M 14544,3461 L 995,3461"/>
 <path fill="none" stroke="rgb(179,179,179)" stroke-linejoin="round" d="M 14544,2670 L 995,2670"/>
 <path fill="none" stroke="rgb(179,179,179)" stroke-linejoin="round" d="M 14544,1879 L 995,1879"/>
 <path fill="none" stroke="rgb(179,179,179)" stroke-linejoin="round" d="M 14544,1088 L 995,1088"/>
 <path fill="none" stroke="rgb(179,179,179)" stroke-linejoin="round" d="M 14544,297 L 995,297"/>
 <path fill="none" stroke="rgb(179,179,179)" stroke-linejoin="round" d="M 995,4402 L 995,4252"/>
 <path fill="none" stroke="rgb(179,179,179)" stroke-linejoin="round" d="M 995,4402 L 995,4252"/>
 <path fill="none" stroke="rgb(179,179,179)" stroke-linejoin="round" d="M 2688,4402 L 2688,4252"/>
 <path fill="none" stroke="rgb(179,179,179)" stroke-linejoin="round" d="M 2688,4402 L 2688,4252"/>
 <path fill="none" stroke="rgb(179,179,179)" stroke-linejoin="round" d="M 4382,4402 L 4382,4252"/>
 <path fill="none" stroke="rgb(179,179,179)" stroke-linejoin="round" d="M 4382,4402 L 4382,4252"/>
 <path fill="none" stroke="rgb(179,179,179)" stroke-linejoin="round" d="M 6076,4402 L 6076,4252"/>
 <path fill="none" stroke="rgb(179,179,179)" stroke-linejoin="round" d="M 6076,4402 L 6076,4252"/>
 <path fill="none" stroke="rgb(179,179,179)" stroke-linejoin="round" d="M 7770,4402 L 7770,4252"/>
 <path fill="none" stroke="rgb(179,179,179)" stroke-linejoin="round" d="M 7770,4402 L 7770,4252"/>
 <path fill="none" stroke="rgb(179,179,179)" stroke-linejoin="round" d="M 9462,4402 L 9462,4252"/>
 <path fill="none" stroke="rgb(179,179,179)" stroke-linejoin="round" d="M 9462,4402 L 9462,4252"/>
 <path fill="none" stroke="rgb(179,179,179)" stroke-linejoin="round" d="M 11156,4402 L 11156,4252"/>
 <path fill="none" stroke="rgb(179,179,179)" stroke-linejoin="round" d="M 11156,4402 L 11156,4252"/>
 <path fill="none" stroke="rgb(179,179,179)" stroke-linejoin="round" d="M 12850,4402 L 12850,4252"/>
 <path fill="none" stroke="rgb(179,179,179)" stroke-linejoin="round" d="M 12850,4402 L 12850,4252"/>
 <path fill="none" stroke="rgb(179,179,179)" stroke-linejoin="round" d="M 14544,4402 L 14544,4252"/>
 <path fill="none" stroke="rgb(179,179,179)" stroke-linejoin="round" d="M 14544,4402 L 14544,4252"/>
 <path fill="none" stroke="rgb(179,179,179)" stroke-linejoin="round" d="M 995,4252 L 14544,4252"/>
 <path fill="none" stroke="rgb(179,179,179)" stroke-linejoin="round" d="M 845,4252 L 995,4252"/>
 <path fill="none" stroke="rgb(179,179,179)" stroke-linejoin="round" d="M 845,4252 L 995,4252"/>
 <path fill="none" stroke="rgb(179,179,179)" stroke-linejoin="round" d="M 845,3461 L 995,3461"/>
 <path fill="none" stroke="rgb(179,179,179)" stroke-linejoin="round" d="M 845,3461 L 995,3461"/>
 <path fill="none" stroke="rgb(179,179,179)" stroke-linejoin="round" d="M 845,2670 L 995,2670"/>
 <path fill="none" stroke="rgb(179,179,179)" stroke-linejoin="round" d="M 845,2670 L 995,2670"/>
 <path fill="none" stroke="rgb(179,179,179)" stroke-linejoin="round" d="M 845,1880 L 995,1880"/>
 <path fill="none" stroke="rgb(179,179,179)" stroke-linejoin="round" d="M 845,1880 L 995,1880"/>
 <path fill="none" stroke="rgb(179,179,179)" stroke-linejoin="round" d="M 845,1088 L 995,1088"/>
 <path fill="none" stroke="rgb(179,179,179)" stroke-linejoin="round" d="M 845,1088 L 995,1088"/>
 <path fill="none" stroke="rgb(179,179,179)" stroke-linejoin="round" d="M 845,297 L 995,297"/>
 <path fill="none" stroke="rgb(179,179,179)" stroke-linejoin="round" d="M 845,297 L 995,297"/>
 <path fill="none" stroke="rgb(179,179,179)" stroke-linejoin="round" d="M 995,4252 L 995,297"/>
 <path fill="rgb(255,66,14)" stroke="none" d="M 13061,4252 L 13485,4252 13485,1900 13061,1900 13061,4252 Z"/>
 <path fill="rgb(255,66,14)" stroke="none" d="M 11368,4252 L 11791,4252 11791,3437 11368,3437 11368,4252 Z"/>
 <path fill="rgb(255,66,14)" stroke="none" d="M 9674,4252 L 10097,4252 10097,3446 9674,3446 9674,4252 Z"/>
 <path fill="rgb(255,66,14)" stroke="none" d="M 7981,4252 L 8405,4252 8405,3623 7981,3623 7981,4252 Z"/>
 <path fill="rgb(255,66,14)" stroke="none" d="M 6287,4252 L 6711,4252 6711,3519 6287,3519 6287,4252 Z"/>
 <path fill="rgb(255,66,14)" stroke="none" d="M 4594,4252 L 5017,4252 5017,4107 4594,4107 4594,4252 Z"/>
 <path fill="rgb(255,66,14)" stroke="none" d="M 2900,4252 L 3323,4252 3323,3218 2900,3218 2900,4252 Z"/>
 <path fill="rgb(255,66,14)" stroke="none" d="M 1206,4252 L 1630,4252 1630,4232 1206,4232 1206,4252 Z"/>
 <path fill="rgb(255,211,32)" stroke="none" d="M 13485,4252 L 13908,4252 13908,3031 13485,3031 13485,4252 Z"/>
 <path fill="rgb(255,211,32)" stroke="none" d="M 11791,4252 L 12215,4252 12215,3248 11791,3248 11791,4252 Z"/>
 <path fill="rgb(255,211,32)" stroke="none" d="M 10097,4252 L 10521,4252 10521,3218 10097,3218 10097,4252 Z"/>
 <path fill="rgb(255,211,32)" stroke="none" d="M 8405,4252 L 8828,4252 8828,2529 8405,2529 8405,4252 Z"/>
 <path fill="rgb(255,211,32)" stroke="none" d="M 6711,4252 L 7134,4252 7134,3005 6711,3005 6711,4252 Z"/>
 <path fill="rgb(255,211,32)" stroke="none" d="M 5017,4252 L 5441,4252 5441,4075 5017,4075 5017,4252 Z"/>
 <path fill="rgb(255,211,32)" stroke="none" d="M 3323,4252 L 3747,4252 3747,842 3323,842 3323,4252 Z"/>
 <path fill="rgb(255,211,32)" stroke="none" d="M 1630,4252 L 2053,4252 2053,4241 1630,4241 1630,4252 Z"/>
 <path fill="rgb(87,157,28)" stroke="none" d="M 13908,4252 L 14332,4252 14332,3179 13908,3179 13908,4252 Z"/>
 <path fill="rgb(87,157,28)" stroke="none" d="M 12215,4252 L 12638,4252 12638,2457 12215,2457 12215,4252 Z"/>
 <path fill="rgb(87,157,28)" stroke="none" d="M 10521,4252 L 10944,4252 10944,2456 10521,2456 10521,4252 Z"/>
 <path fill="rgb(87,157,28)" stroke="none" d="M 8828,4252 L 9251,4252 9251,3141 8828,3141 8828,4252 Z"/>
 <path fill="rgb(87,157,28)" stroke="none" d="M 7134,4252 L 7558,4252 7558,2502 7134,2502 7134,4252 Z"/>
 <path fill="rgb(87,157,28)" stroke="none" d="M 5441,4252 L 5864,4252 5864,3639 5441,3639 5441,4252 Z"/>
 <path fill="rgb(87,157,28)" stroke="none" d="M 3747,4252 L 4170,4252 4170,1869 3747,1869 3747,4252 Z"/>
 <path fill="rgb(87,157,28)" stroke="none" d="M 2053,4252 L 2477,4252 2477,4197 2053,4197 2053,4252 Z"/>
 <text class="TextShape"><tspan class="TextParagraph" font-family="Liberation Sans" font-size="353px" font-weight="400"><tspan class="TextPosition" x="1470" y="4820"><tspan fill="rgb(0,0,0)" stroke="none">none</tspan></tspan></tspan></text>
 <text class="TextShape"><tspan class="TextParagraph" font-family="Liberation Sans" font-size="353px" font-weight="400"><tspan class="TextPosition" x="3019" y="4820"><tspan fill="rgb(0,0,0)" stroke="none">bakery</tspan></tspan></tspan></text>
 <text class="TextShape"><tspan class="TextParagraph" font-family="Liberation Sans" font-size="353px" font-weight="400"><tspan class="TextPosition" x="4898" y="4820"><tspan fill="rgb(0,0,0)" stroke="none">best</tspan></tspan></tspan></text>
 <text class="TextShape"><tspan class="TextParagraph" font-family="Liberation Sans" font-size="353px" font-weight="400"><tspan class="TextPosition" x="6526" y="4820"><tspan fill="rgb(0,0,0)" stroke="none">swap</tspan></tspan></tspan></text>
 <text class="TextShape"><tspan class="TextParagraph" font-family="Liberation Sans" font-size="353px" font-weight="400"><tspan class="TextPosition" x="7981" y="4820"><tspan fill="rgb(0,0,0)" stroke="none">get&amp;add</tspan></tspan></tspan></text>
 <text class="TextShape"><tspan class="TextParagraph" font-family="Liberation Sans" font-size="353px" font-weight="400"><tspan class="TextPosition" x="9979" y="4820"><tspan fill="rgb(0,0,0)" stroke="none">TAS</tspan></tspan></tspan></text>
 <text class="TextShape"><tspan class="TextParagraph" font-family="Liberation Sans" font-size="353px" font-weight="400"><tspan class="TextPosition" x="11408" y="4820"><tspan fill="rgb(0,0,0)" stroke="none">get&amp;set</tspan></tspan></tspan></text>
 <text class="TextShape"><tspan class="TextParagraph" font-family="Liberation Sans" font-size="353px" font-weight="400"><tspan class="TextPosition" x="13341" y="4820"><tspan fill="rgb(0,0,0)" stroke="none">CAS</tspan></tspan></tspan></text>
 <text class="TextShape"><tspan class="TextParagraph" font-family="Liberation Sans" font-size="353px" font-weight="400"><tspan class="TextPosition" x="560" y="4373"><tspan fill="rgb(0,0,0)" stroke="none">0</tspan></tspan></tspan></text>
 <text class="TextShape"><tspan class="TextParagraph" font-family="Liberation Sans" font-size="353px" font-weight="400"><tspan class="TextPosition" x="560" y="3582"><tspan fill="rgb(0,0,0)" stroke="none">5</tspan></tspan></tspan></text>
 <text class="TextShape"><tspan class="TextParagraph" font-family="Liberation Sans" font-size="353px" font-weight="400"><tspan class="TextPosition" x="375" y="2791"><tspan fill="rgb(0,0,0)" stroke="none">10</tspan></tspan></tspan></text>
 <text class="TextShape"><tspan class="TextParagraph" font-family="Liberation Sans" font-size="353px" font-weight="400"><tspan class="TextPosition" x="375" y="2000"><tspan fill="rgb(0,0,0)" stroke="none">15</tspan></tspan></tspan></text>
 <text class="TextShape"><tspan class="TextParagraph" font-family="Liberation Sans" font-size="353px" font-weight="400"><tspan class="TextPosition" x="375" y="1208"><tspan fill="rgb(0,0,0)" stroke="none">20</tspan></tspan></tspan></text>
 <text class="TextShape"><tspan class="TextParagraph" font-family="Liberation Sans" font-size="353px" font-weight="400"><tspan class="TextPosition" x="375" y="417"><tspan fill="rgb(0,0,0)" stroke="none">25</tspan></tspan></tspan></text>
 <path fill="rgb(255,66,14)" stroke="none" d="M 15126,2107 L 15020,2107 15020,1896 15231,1896 15231,2107 15126,2107 Z"/>
 <path fill="rgb(255,211,32)" stroke="none" d="M 15126,2604 L 15020,2604 15020,2394 15231,2394 15231,2604 15126,2604 Z"/>
 <path fill="rgb(87,157,28)" stroke="none" d="M 15126,3102 L 15020,3102 15020,2891 15231,2891 15231,3102 15126,3102 Z"/>
 <text class="TextShape"><tspan class="TextParagraph" font-family="Liberation Sans" font-size="353px" font-weight="400"><tspan class="TextPosition" x="15331" y="2121"><tspan fill="rgb(0,0,0)" stroke="none">Intel i5 (4)</tspan></tspan></tspan></text>
 <text class="TextShape"><tspan class="TextParagraph" font-family="Liberation Sans" font-size="353px" font-weight="400"><tspan class="TextPosition" x="15331" y="2618"><tspan fill="rgb(0,0,0)" stroke="none">Intel Xeon (16)</tspan></tspan></tspan></text>
 <text class="TextShape"><tspan class="TextParagraph" font-family="Liberation Sans" font-size="353px" font-weight="400"><tspan class="TextPosition" x="15331" y="3116"><tspan fill="rgb(0,0,0)" stroke="none">Raspberry 2 (4)</tspan></tspan></tspan></text>
</svg>