<?xml version="1.0" encoding="UTF-8"?>
<!DOCTYPE svg PUBLIC "-//W3C//DTD SVG 1.1//EN" "http://www.w3.org/Graphics/SVG/1.1/DTD/svg11.dtd">
<svg width="180mm" height="50mm" viewBox="0 0 18000 5000" version="1.1" baseProfile="tiny" xmlns="http://www.w3.org/2000/svg" stroke-width="28.222" stroke-linejoin="round" xml:space="preserve">
 <path fill="rgb(255,255,255)" stroke="none" d="M 9000,5000 L 0,5000 0,0 18000,0 18000,5000 9000,5000 Z"/>
 <path fill="none" stroke="rgb(179,179,179)" stroke-linejoin="round" d="M 8563,4253 L 981,4253 981,299 16144,299 16144,4253 8563,4253 Z"/>
 <path fill="none" stroke="rgb(179,179,179)" stroke-linejoin="round" d="M 16144,4252 L 981,4252"/>
 <path fill="none" stroke="rgb(179,179,179)" stroke-linejoin="round" d="M 16144,3461 L 981,3461"/>
 <path fill="none" stroke="rgb(179,179,179)" stroke-linejoin="round" d="M 16144,2670 L 981,2670"/>
 <path fill="none" stroke="rgb(179,179,179)" stroke-linejoin="round" d="M 16144,1880 L 981,1880"/>
 <path fill="none" stroke="rgb(179,179,179)" stroke-linejoin="round" d="M 16144,1089 L 981,1089"/>
 <path fill="none" stroke="rgb(179,179,179)" stroke-linejoin="round" d="M 16144,298 L 981,298"/>
 <path fill="none" stroke="rgb(179,179,179)" stroke-linejoin="round" d="M 981,4402 L 981,4252"/>
 <path fill="none" stroke="rgb(179,179,179)" stroke-linejoin="round" d="M 981,4402 L 981,4252"/>
 <path fill="none" stroke="rgb(179,179,179)" stroke-linejoin="round" d="M 4013,4402 L 4013,4252"/>
 <path fill="none" stroke="rgb(179,179,179)" stroke-linejoin="round" d="M 4013,4402 L 4013,4252"/>
 <path fill="none" stroke="rgb(179,179,179)" stroke-linejoin="round" d="M 7046,4402 L 7046,4252"/>
 <path fill="none" stroke="rgb(179,179,179)" stroke-linejoin="round" d="M 7046,4402 L 7046,4252"/>
 <path fill="none" stroke="rgb(179,179,179)" stroke-linejoin="round" d="M 10078,4402 L 10078,4252"/>
 <path fill="none" stroke="rgb(179,179,179)" stroke-linejoin="round" d="M 10078,4402 L 10078,4252"/>
 <path fill="none" stroke="rgb(179,179,179)" stroke-linejoin="round" d="M 13111,4402 L 13111,4252"/>
 <path fill="none" stroke="rgb(179,179,179)" stroke-linejoin="round" d="M 13111,4402 L 13111,4252"/>
 <path fill="none" stroke="rgb(179,179,179)" stroke-linejoin="round" d="M 16144,4402 L 16144,4252"/>
 <path fill="none" stroke="rgb(179,179,179)" stroke-linejoin="round" d="M 16144,4402 L 16144,4252"/>
 <path fill="none" stroke="rgb(179,179,179)" stroke-linejoin="round" d="M 981,4252 L 16144,4252"/>
 <path fill="none" stroke="rgb(179,179,179)" stroke-linejoin="round" d="M 831,4252 L 981,4252"/>
 <path fill="none" stroke="rgb(179,179,179)" stroke-linejoin="round" d="M 831,4252 L 981,4252"/>
 <path fill="none" stroke="rgb(179,179,179)" stroke-linejoin="round" d="M 831,3461 L 981,3461"/>
 <path fill="none" stroke="rgb(179,179,179)" stroke-linejoin="round" d="M 831,3461 L 981,3461"/>
 <path fill="none" stroke="rgb(179,179,179)" stroke-linejoin="round" d="M 831,2670 L 981,2670"/>
 <path fill="none" stroke="rgb(179,179,179)" stroke-linejoin="round" d="M 831,2670 L 981,2670"/>
 <path fill="none" stroke="rgb(179,179,179)" stroke-linejoin="round" d="M 831,1879 L 981,1879"/>
 <path fill="none" stroke="rgb(179,179,179)" stroke-linejoin="round" d="M 831,1879 L 981,1879"/>
 <path fill="none" stroke="rgb(179,179,179)" stroke-linejoin="round" d="M 831,1089 L 981,1089"/>
 <path fill="none" stroke="rgb(179,179,179)" stroke-linejoin="round" d="M 831,1089 L 981,1089"/>
 <path fill="none" stroke="rgb(179,179,179)" stroke-linejoin="round" d="M 831,298 L 981,298"/>
 <path fill="none" stroke="rgb(179,179,179)" stroke-linejoin="round" d="M 831,298 L 981,298"/>
 <path fill="none" stroke="rgb(179,179,179)" stroke-linejoin="round" d="M 981,4252 L 981,298"/>
 <path fill="rgb(0,69,134)" stroke="none" d="M 13414,4252 L 14021,4252 14021,1010 13414,1010 13414,4252 Z"/>
 <path fill="rgb(0,69,134)" stroke="none" d="M 10381,4252 L 10988,4252 10988,976 10381,976 10381,4252 Z"/>
 <path fill="rgb(0,69,134)" stroke="none" d="M 7349,4252 L 7956,4252 7956,1279 7349,1279 7349,4252 Z"/>
 <path fill="rgb(0,69,134)" stroke="none" d="M 4317,4252 L 4923,4252 4923,752 4317,752 4317,4252 Z"/>
 <path fill="rgb(0,69,134)" stroke="none" d="M 1284,4252 L 1890,4252 1890,1359 1284,1359 1284,4252 Z"/>
 <path fill="rgb(255,66,14)" stroke="none" d="M 14021,4252 L 14627,4252 14627,3061 14021,3061 14021,4252 Z"/>
 <path fill="rgb(255,66,14)" stroke="none" d="M 10988,4252 L 11594,4252 11594,1277 10988,1277 10988,4252 Z"/>
 <path fill="rgb(255,66,14)" stroke="none" d="M 7956,4252 L 8563,4252 8563,2586 7956,2586 7956,4252 Z"/>
 <path fill="rgb(255,66,14)" stroke="none" d="M 4923,4252 L 5530,4252 5530,1830 4923,1830 4923,4252 Z"/>
 <path fill="rgb(255,66,14)" stroke="none" d="M 1890,4252 L 2497,4252 2497,1360 1890,1360 1890,4252 Z"/>
 <path fill="rgb(255,211,32)" stroke="none" d="M 14627,4252 L 15234,4252 15234,3914 14627,3914 14627,4252 Z"/>
 <path fill="rgb(255,211,32)" stroke="none" d="M 11594,4252 L 12201,4252 12201,3133 11594,3133 11594,4252 Z"/>
 <path fill="rgb(255,211,32)" stroke="none" d="M 8563,4252 L 9168,4252 9168,3812 8563,3812 8563,4252 Z"/>
 <path fill="rgb(255,211,32)" stroke="none" d="M 5530,4252 L 6136,4252 6136,2741 5530,2741 5530,4252 Z"/>
 <path fill="rgb(255,211,32)" stroke="none" d="M 2497,4252 L 3103,4252 3103,1709 2497,1709 2497,4252 Z"/>
 <path fill="rgb(87,157,28)" stroke="none" d="M 15234,4252 L 15840,4252 15840,3946 15234,3946 15234,4252 Z"/>
 <path fill="rgb(87,157,28)" stroke="none" d="M 12201,4252 L 12807,4252 12807,3654 12201,3654 12201,4252 Z"/>
 <path fill="rgb(87,157,28)" stroke="none" d="M 9168,4252 L 9775,4252 9775,3896 9168,3896 9168,4252 Z"/>
 <path fill="rgb(87,157,28)" stroke="none" d="M 6136,4252 L 6743,4252 6743,2847 6136,2847 6136,4252 Z"/>
 <path fill="rgb(87,157,28)" stroke="none" d="M 3103,4252 L 3710,4252 3710,1452 3103,1452 3103,4252 Z"/>
 <text class="TextShape"><tspan class="TextParagraph" font-family="Liberation Sans, sans-serif" font-size="353px" font-weight="400"><tspan class="TextPosition" x="1862" y="4820"><tspan fill="rgb(0,0,0)" stroke="none">spinlock</tspan></tspan></tspan></text>
 <text class="TextShape"><tspan class="TextParagraph" font-family="Liberation Sans, sans-serif" font-size="353px" font-weight="400"><tspan class="TextPosition" x="4882" y="4820"><tspan fill="rgb(0,0,0)" stroke="none">tinySTM</tspan></tspan></tspan></text>
 <text class="TextShape"><tspan class="TextParagraph" font-family="Liberation Sans, sans-serif" font-size="353px" font-weight="400"><tspan class="TextPosition" x="7293" y="4820"><tspan fill="rgb(0,0,0)" stroke="none">GCC transaction</tspan></tspan></tspan></text>
 <text class="TextShape"><tspan class="TextParagraph" font-family="Liberation Sans, sans-serif" font-size="353px" font-weight="400"><tspan class="TextPosition" x="10880" y="4820"><tspan fill="rgb(0,0,0)" stroke="none">Intel HLE</tspan></tspan></tspan></text>
 <text class="TextShape"><tspan class="TextParagraph" font-family="Liberation Sans, sans-serif" font-size="353px" font-weight="400"><tspan class="TextPosition" x="13887" y="4820"><tspan fill="rgb(0,0,0)" stroke="none">Intel RTM</tspan></tspan></tspan></text>
 <text class="TextShape"><tspan class="TextParagraph" font-family="Liberation Sans, sans-serif" font-size="353px" font-weight="400"><tspan class="TextPosition" x="546" y="4373"><tspan fill="rgb(0,0,0)" stroke="none">0</tspan></tspan></tspan></text>
 <text class="TextShape"><tspan class="TextParagraph" font-family="Liberation Sans, sans-serif" font-size="353px" font-weight="400"><tspan class="TextPosition" x="546" y="3582"><tspan fill="rgb(0,0,0)" stroke="none">2</tspan></tspan></tspan></text>
 <text class="TextShape"><tspan class="TextParagraph" font-family="Liberation Sans, sans-serif" font-size="353px" font-weight="400"><tspan class="TextPosition" x="546" y="2791"><tspan fill="rgb(0,0,0)" stroke="none">4</tspan></tspan></tspan></text>
 <text class="TextShape"><tspan class="TextParagraph" font-family="Liberation Sans, sans-serif" font-size="353px" font-weight="400"><tspan class="TextPosition" x="546" y="1999"><tspan fill="rgb(0,0,0)" stroke="none">6</tspan></tspan></tspan></text>
 <text class="TextShape"><tspan class="TextParagraph" font-family="Liberation Sans, sans-serif" font-size="353px" font-weight="400"><tspan class="TextPosition" x="546" y="1209"><tspan fill="rgb(0,0,0)" stroke="none">8</tspan></tspan></tspan></text>
 <text class="TextShape"><tspan class="TextParagraph" font-family="Liberation Sans, sans-serif" font-size="353px" font-weight="400"><tspan class="TextPosition" x="361" y="418"><tspan fill="rgb(0,0,0)" stroke="none">10</tspan></tspan></tspan></text>
 <path fill="rgb(0,69,134)" stroke="none" d="M 16726,1858 L 16620,1858 16620,1647 16831,1647 16831,1858 16726,1858 Z"/>
 <path fill="rgb(255,66,14)" stroke="none" d="M 16726,2356 L 16620,2356 16620,2145 16831,2145 16831,2356 16726,2356 Z"/>
 <path fill="rgb(255,211,32)" stroke="none" d="M 16726,2853 L 16620,2853 16620,2642 16831,2642 16831,2853 16726,2853 Z"/>
 <path fill="rgb(87,157,28)" stroke="none" d="M 16726,3351 L 16620,3351 16620,3140 16831,3140 16831,3351 16726,3351 Z"/>
 <text class="TextShape"><tspan class="TextParagraph" font-family="Liberation Sans, sans-serif" font-size="353px" font-weight="400"><tspan class="TextPosition" x="16931" y="1872"><tspan fill="rgb(0,0,0)" stroke="none">1</tspan></tspan></tspan></text>
 <text class="TextShape"><tspan class="TextParagraph" font-family="Liberation Sans, sans-serif" font-size="353px" font-weight="400"><tspan class="TextPosition" x="16931" y="2370"><tspan fill="rgb(0,0,0)" stroke="none">64</tspan></tspan></tspan></text>
 <text class="TextShape"><tspan class="TextParagraph" font-family="Liberation Sans, sans-serif" font-size="353px" font-weight="400"><tspan class="TextPosition" x="16931" y="2867"><tspan fill="rgb(0,0,0)" stroke="none">1024</tspan></tspan></tspan></text>
 <text class="TextShape"><tspan class="TextParagraph" font-family="Liberation Sans, sans-serif" font-size="353px" font-weight="400"><tspan class="TextPosition" x="16931" y="3365"><tspan fill="rgb(0,0,0)" stroke="none">4096</tspan></tspan></tspan></text>
</svg>