<?xml version="1.0" encoding="UTF-8"?>
<!DOCTYPE svg PUBLIC "-//W3C//DTD SVG 1.1//EN" "http://www.w3.org/Graphics/SVG/1.1/DTD/svg11.dtd">
<svg width="180mm" height="50mm" viewBox="0 0 18000 5000" version="1.1" baseProfile="tiny" xmlns="http://www.w3.org/2000/svg" stroke-width="28.222" stroke-linejoin="round" xml:space="preserve">
 <path fill="rgb(255,255,255)" stroke="none" d="M 9000,5000 L 0,5000 0,0 18000,0 18000,5000 9000,5000 Z"/>
 <path fill="none" stroke="rgb(179,179,179)" stroke-linejoin="round" d="M 8007,4253 L 981,4253 981,299 15033,299 15033,4253 8007,4253 Z"/>
 <path fill="none" stroke="rgb(179,179,179)" stroke-linejoin="round" d="M 15032,4252 L 981,4252"/>
 <path fill="none" stroke="rgb(179,179,179)" stroke-linejoin="round" d="M 15032,3757 L 981,3757"/>
 <path fill="none" stroke="rgb(179,179,179)" stroke-linejoin="round" d="M 15032,3263 L 981,3263"/>
 <path fill="none" stroke="rgb(179,179,179)" stroke-linejoin="round" d="M 15032,2768 L 981,2768"/>
 <path fill="none" stroke="rgb(179,179,179)" stroke-linejoin="round" d="M 15032,2275 L 981,2275"/>
 <path fill="none" stroke="rgb(179,179,179)" stroke-linejoin="round" d="M 15032,1781 L 981,1781"/>
 <path fill="none" stroke="rgb(179,179,179)" stroke-linejoin="round" d="M 15032,1286 L 981,1286"/>
 <path fill="none" stroke="rgb(179,179,179)" stroke-linejoin="round" d="M 15032,792 L 981,792"/>
 <path fill="none" stroke="rgb(179,179,179)" stroke-linejoin="round" d="M 15032,298 L 981,298"/>
 <path fill="none" stroke="rgb(179,179,179)" stroke-linejoin="round" d="M 981,4402 L 981,4252"/>
 <path fill="none" stroke="rgb(179,179,179)" stroke-linejoin="round" d="M 981,4402 L 981,4252"/>
 <path fill="none" stroke="rgb(179,179,179)" stroke-linejoin="round" d="M 3791,4402 L 3791,4252"/>
 <path fill="none" stroke="rgb(179,179,179)" stroke-linejoin="round" d="M 3791,4402 L 3791,4252"/>
 <path fill="none" stroke="rgb(179,179,179)" stroke-linejoin="round" d="M 6602,4402 L 6602,4252"/>
 <path fill="none" stroke="rgb(179,179,179)" stroke-linejoin="round" d="M 6602,4402 L 6602,4252"/>
 <path fill="none" stroke="rgb(179,179,179)" stroke-linejoin="round" d="M 9411,4402 L 9411,4252"/>
 <path fill="none" stroke="rgb(179,179,179)" stroke-linejoin="round" d="M 9411,4402 L 9411,4252"/>
 <path fill="none" stroke="rgb(179,179,179)" stroke-linejoin="round" d="M 12222,4402 L 12222,4252"/>
 <path fill="none" stroke="rgb(179,179,179)" stroke-linejoin="round" d="M 12222,4402 L 12222,4252"/>
 <path fill="none" stroke="rgb(179,179,179)" stroke-linejoin="round" d="M 15032,4402 L 15032,4252"/>
 <path fill="none" stroke="rgb(179,179,179)" stroke-linejoin="round" d="M 15032,4402 L 15032,4252"/>
 <path fill="none" stroke="rgb(179,179,179)" stroke-linejoin="round" d="M 981,4252 L 15032,4252"/>
 <path fill="none" stroke="rgb(179,179,179)" stroke-linejoin="round" d="M 831,4252 L 981,4252"/>
 <path fill="none" stroke="rgb(179,179,179)" stroke-linejoin="round" d="M 831,4252 L 981,4252"/>
 <path fill="none" stroke="rgb(179,179,179)" stroke-linejoin="round" d="M 831,3757 L 981,3757"/>
 <path fill="none" stroke="rgb(179,179,179)" stroke-linejoin="round" d="M 831,3757 L 981,3757"/>
 <path fill="none" stroke="rgb(179,179,179)" stroke-linejoin="round" d="M 831,3263 L 981,3263"/>
 <path fill="none" stroke="rgb(179,179,179)" stroke-linejoin="round" d="M 831,3263 L 981,3263"/>
 <path fill="none" stroke="rgb(179,179,179)" stroke-linejoin="round" d="M 831,2768 L 981,2768"/>
 <path fill="none" stroke="rgb(179,179,179)" stroke-linejoin="round" d="M 831,2768 L 981,2768"/>
 <path fill="none" stroke="rgb(179,179,179)" stroke-linejoin="round" d="M 831,2275 L 981,2275"/>
 <path fill="none" stroke="rgb(179,179,179)" stroke-linejoin="round" d="M 831,2275 L 981,2275"/>
 <path fill="none" stroke="rgb(179,179,179)" stroke-linejoin="round" d="M 831,1781 L 981,1781"/>
 <path fill="none" stroke="rgb(179,179,179)" stroke-linejoin="round" d="M 831,1781 L 981,1781"/>
 <path fill="none" stroke="rgb(179,179,179)" stroke-linejoin="round" d="M 831,1286 L 981,1286"/>
 <path fill="none" stroke="rgb(179,179,179)" stroke-linejoin="round" d="M 831,1286 L 981,1286"/>
 <path fill="none" stroke="rgb(179,179,179)" stroke-linejoin="round" d="M 831,792 L 981,792"/>
 <path fill="none" stroke="rgb(179,179,179)" stroke-linejoin="round" d="M 831,792 L 981,792"/>
 <path fill="none" stroke="rgb(179,179,179)" stroke-linejoin="round" d="M 831,298 L 981,298"/>
 <path fill="none" stroke="rgb(179,179,179)" stroke-linejoin="round" d="M 831,298 L 981,298"/>
 <path fill="none" stroke="rgb(179,179,179)" stroke-linejoin="round" d="M 981,4252 L 981,298"/>
 <path fill="rgb(0,69,134)" stroke="none" d="M 9880,4252 L 10817,4252 10817,852 9880,852 9880,4252 Z"/>
 <path fill="rgb(0,69,134)" stroke="none" d="M 7070,4252 L 8007,4252 8007,3222 7070,3222 7070,4252 Z"/>
 <path fill="rgb(0,69,134)" stroke="none" d="M 4260,4252 L 5196,4252 5196,3743 4260,3743 4260,4252 Z"/>
 <path fill="rgb(0,69,134)" stroke="none" d="M 1449,4252 L 2386,4252 2386,2178 1449,2178 1449,4252 Z"/>
 <path fill="rgb(255,66,14)" stroke="none" d="M 13627,4252 L 14564,4252 14564,3309 13627,3309 13627,4252 Z"/>
 <path fill="rgb(255,66,14)" stroke="none" d="M 10817,4252 L 11753,4252 11753,2593 10817,2593 10817,4252 Z"/>
 <path fill="rgb(255,66,14)" stroke="none" d="M 8007,4252 L 8944,4252 8944,3702 8007,3702 8007,4252 Z"/>
 <path fill="rgb(255,66,14)" stroke="none" d="M 5196,4252 L 6133,4252 6133,3860 5196,3860 5196,4252 Z"/>
 <path fill="rgb(255,66,14)" stroke="none" d="M 2386,4252 L 3323,4252 3323,2325 2386,2325 2386,4252 Z"/>
 <text class="TextShape"><tspan class="TextParagraph" font-family="Liberation Sans" font-size="353px" font-weight="400"><tspan class="TextPosition" x="1751" y="4820"><tspan fill="rgb(0,0,0)" stroke="none">spinlock</tspan></tspan></tspan></text>
 <text class="TextShape"><tspan class="TextParagraph" font-family="Liberation Sans" font-size="353px" font-weight="400"><tspan class="TextPosition" x="4548" y="4820"><tspan fill="rgb(0,0,0)" stroke="none">tinySTM</tspan></tspan></tspan></text>
 <text class="TextShape"><tspan class="TextParagraph" font-family="Liberation Sans" font-size="353px" font-weight="400"><tspan class="TextPosition" x="6737" y="4820"><tspan fill="rgb(0,0,0)" stroke="none">GCC transaction</tspan></tspan></tspan></text>
 <text class="TextShape"><tspan class="TextParagraph" font-family="Liberation Sans" font-size="353px" font-weight="400"><tspan class="TextPosition" x="10103" y="4820"><tspan fill="rgb(0,0,0)" stroke="none">Intel HLE</tspan></tspan></tspan></text>
 <text class="TextShape"><tspan class="TextParagraph" font-family="Liberation Sans" font-size="353px" font-weight="400"><tspan class="TextPosition" x="12887" y="4820"><tspan fill="rgb(0,0,0)" stroke="none">Intel RTM</tspan></tspan></tspan></text>
 <text class="TextShape"><tspan class="TextParagraph" font-family="Liberation Sans" font-size="353px" font-weight="400"><tspan class="TextPosition" x="546" y="4373"><tspan fill="rgb(0,0,0)" stroke="none">0</tspan></tspan></tspan></text>
 <text class="TextShape"><tspan class="TextParagraph" font-family="Liberation Sans" font-size="353px" font-weight="400"><tspan class="TextPosition" x="546" y="3878"><tspan fill="rgb(0,0,0)" stroke="none">2</tspan></tspan></tspan></text>
 <text class="TextShape"><tspan class="TextParagraph" font-family="Liberation Sans" font-size="353px" font-weight="400"><tspan class="TextPosition" x="546" y="3384"><tspan fill="rgb(0,0,0)" stroke="none">4</tspan></tspan></tspan></text>
 <text class="TextShape"><tspan class="TextParagraph" font-family="Liberation Sans" font-size="353px" font-weight="400"><tspan class="TextPosition" x="546" y="2889"><tspan fill="rgb(0,0,0)" stroke="none">6</tspan></tspan></tspan></text>
 <text class="TextShape"><tspan class="TextParagraph" font-family="Liberation Sans" font-size="353px" font-weight="400"><tspan class="TextPosition" x="546" y="2395"><tspan fill="rgb(0,0,0)" stroke="none">8</tspan></tspan></tspan></text>
 <text class="TextShape"><tspan class="TextParagraph" font-family="Liberation Sans" font-size="353px" font-weight="400"><tspan class="TextPosition" x="361" y="1901"><tspan fill="rgb(0,0,0)" stroke="none">10</tspan></tspan></tspan></text>
 <text class="TextShape"><tspan class="TextParagraph" font-family="Liberation Sans" font-size="353px" font-weight="400"><tspan class="TextPosition" x="361" y="1406"><tspan fill="rgb(0,0,0)" stroke="none">12</tspan></tspan></tspan></text>
 <text class="TextShape"><tspan class="TextParagraph" font-family="Liberation Sans" font-size="353px" font-weight="400"><tspan class="TextPosition" x="361" y="912"><tspan fill="rgb(0,0,0)" stroke="none">14</tspan></tspan></tspan></text>
 <text class="TextShape"><tspan class="TextParagraph" font-family="Liberation Sans" font-size="353px" font-weight="400"><tspan class="TextPosition" x="361" y="418"><tspan fill="rgb(0,0,0)" stroke="none">16</tspan></tspan></tspan></text>
 <path fill="rgb(0,69,134)" stroke="none" d="M 15615,2356 L 15509,2356 15509,2145 15720,2145 15720,2356 15615,2356 Z"/>
 <path fill="rgb(255,66,14)" stroke="none" d="M 15615,2853 L 15509,2853 15509,2642 15720,2642 15720,2853 15615,2853 Z"/>
 <text class="TextShape"><tspan class="TextParagraph" font-family="Liberation Sans" font-size="353px" font-weight="400"><tspan class="TextPosition" x="15820" y="2370"><tspan fill="rgb(0,0,0)" stroke="none">I5 (STM)</tspan></tspan></tspan></text>
 <text class="TextShape"><tspan class="TextParagraph" font-family="Liberation Sans" font-size="353px" font-weight="400"><tspan class="TextPosition" x="15820" y="2867"><tspan fill="rgb(0,0,0)" stroke="none">Xeon (HTM)</tspan></tspan></tspan></text>
</svg>