<?xml version="1.0" encoding="UTF-8"?>
<!DOCTYPE svg PUBLIC "-//W3C//DTD SVG 1.1//EN" "http://www.w3.org/Graphics/SVG/1.1/DTD/svg11.dtd">
<svg width="180mm" height="50mm" viewBox="0 0 18000 5000" version="1.1" baseProfile="tiny" xmlns="http://www.w3.org/2000/svg" stroke-width="28.222" stroke-linejoin="round" xml:space="preserve">
 <path fill="rgb(255,255,255)" stroke="none" d="M 9000,5000 L 0,5000 0,0 18000,0 18000,5000 9000,5000 Z"/>
 <path fill="none" stroke="rgb(179,179,179)" stroke-linejoin="round" d="M 7915,4253 L 796,4253 796,299 15033,299 15033,4253 7915,4253 Z"/>
 <path fill="none" stroke="rgb(179,179,179)" stroke-linejoin="round" d="M 15032,4252 L 796,4252"/>
 <path fill="none" stroke="rgb(179,179,179)" stroke-linejoin="round" d="M 15032,3812 L 796,3812"/>
 <path fill="none" stroke="rgb(179,179,179)" stroke-linejoin="round" d="M 15032,3373 L 796,3373"/>
 <path fill="none" stroke="rgb(179,179,179)" stroke-linejoin="round" d="M 15032,2933 L 796,2933"/>
 <path fill="none" stroke="rgb(179,179,179)" stroke-linejoin="round" d="M 15032,2495 L 796,2495"/>
 <path fill="none" stroke="rgb(179,179,179)" stroke-linejoin="round" d="M 15032,2055 L 796,2055"/>
 <path fill="none" stroke="rgb(179,179,179)" stroke-linejoin="round" d="M 15032,1616 L 796,1616"/>
 <path fill="none" stroke="rgb(179,179,179)" stroke-linejoin="round" d="M 15032,1176 L 796,1176"/>
 <path fill="none" stroke="rgb(179,179,179)" stroke-linejoin="round" d="M 15032,737 L 796,737"/>
 <path fill="none" stroke="rgb(179,179,179)" stroke-linejoin="round" d="M 15032,298 L 796,298"/>
 <path fill="none" stroke="rgb(179,179,179)" stroke-linejoin="round" d="M 796,4402 L 796,4252"/>
 <path fill="none" stroke="rgb(179,179,179)" stroke-linejoin="round" d="M 796,4402 L 796,4252"/>
 <path fill="none" stroke="rgb(179,179,179)" stroke-linejoin="round" d="M 3643,4402 L 3643,4252"/>
 <path fill="none" stroke="rgb(179,179,179)" stroke-linejoin="round" d="M 3643,4402 L 3643,4252"/>
 <path fill="none" stroke="rgb(179,179,179)" stroke-linejoin="round" d="M 6491,4402 L 6491,4252"/>
 <path fill="none" stroke="rgb(179,179,179)" stroke-linejoin="round" d="M 6491,4402 L 6491,4252"/>
 <path fill="none" stroke="rgb(179,179,179)" stroke-linejoin="round" d="M 9337,4402 L 9337,4252"/>
 <path fill="none" stroke="rgb(179,179,179)" stroke-linejoin="round" d="M 9337,4402 L 9337,4252"/>
 <path fill="none" stroke="rgb(179,179,179)" stroke-linejoin="round" d="M 12185,4402 L 12185,4252"/>
 <path fill="none" stroke="rgb(179,179,179)" stroke-linejoin="round" d="M 12185,4402 L 12185,4252"/>
 <path fill="none" stroke="rgb(179,179,179)" stroke-linejoin="round" d="M 15032,4402 L 15032,4252"/>
 <path fill="none" stroke="rgb(179,179,179)" stroke-linejoin="round" d="M 15032,4402 L 15032,4252"/>
 <path fill="none" stroke="rgb(179,179,179)" stroke-linejoin="round" d="M 796,4252 L 15032,4252"/>
 <path fill="none" stroke="rgb(179,179,179)" stroke-linejoin="round" d="M 646,4252 L 796,4252"/>
 <path fill="none" stroke="rgb(179,179,179)" stroke-linejoin="round" d="M 646,4252 L 796,4252"/>
 <path fill="none" stroke="rgb(179,179,179)" stroke-linejoin="round" d="M 646,3812 L 796,3812"/>
 <path fill="none" stroke="rgb(179,179,179)" stroke-linejoin="round" d="M 646,3812 L 796,3812"/>
 <path fill="none" stroke="rgb(179,179,179)" stroke-linejoin="round" d="M 646,3373 L 796,3373"/>
 <path fill="none" stroke="rgb(179,179,179)" stroke-linejoin="round" d="M 646,3373 L 796,3373"/>
 <path fill="none" stroke="rgb(179,179,179)" stroke-linejoin="round" d="M 646,2933 L 796,2933"/>
 <path fill="none" stroke="rgb(179,179,179)" stroke-linejoin="round" d="M 646,2933 L 796,2933"/>
 <path fill="none" stroke="rgb(179,179,179)" stroke-linejoin="round" d="M 646,2495 L 796,2495"/>
 <path fill="none" stroke="rgb(179,179,179)" stroke-linejoin="round" d="M 646,2495 L 796,2495"/>
 <path fill="none" stroke="rgb(179,179,179)" stroke-linejoin="round" d="M 646,2055 L 796,2055"/>
 <path fill="none" stroke="rgb(179,179,179)" stroke-linejoin="round" d="M 646,2055 L 796,2055"/>
 <path fill="none" stroke="rgb(179,179,179)" stroke-linejoin="round" d="M 646,1616 L 796,1616"/>
 <path fill="none" stroke="rgb(179,179,179)" stroke-linejoin="round" d="M 646,1616 L 796,1616"/>
 <path fill="none" stroke="rgb(179,179,179)" stroke-linejoin="round" d="M 646,1176 L 796,1176"/>
 <path fill="none" stroke="rgb(179,179,179)" stroke-linejoin="round" d="M 646,1176 L 796,1176"/>
 <path fill="none" stroke="rgb(179,179,179)" stroke-linejoin="round" d="M 646,737 L 796,737"/>
 <path fill="none" stroke="rgb(179,179,179)" stroke-linejoin="round" d="M 646,737 L 796,737"/>
 <path fill="none" stroke="rgb(179,179,179)" stroke-linejoin="round" d="M 646,298 L 796,298"/>
 <path fill="none" stroke="rgb(179,179,179)" stroke-linejoin="round" d="M 646,298 L 796,298"/>
 <path fill="none" stroke="rgb(179,179,179)" stroke-linejoin="round" d="M 796,4252 L 796,298"/>
 <path fill="rgb(0,69,134)" stroke="none" d="M 6965,4252 L 7914,4252 7914,2423 6965,2423 6965,4252 Z"/>
 <path fill="rgb(0,69,134)" stroke="none" d="M 4118,4252 L 5067,4252 5067,3348 4118,3348 4118,4252 Z"/>
 <path fill="rgb(0,69,134)" stroke="none" d="M 1270,4252 L 2219,4252 2219,564 1270,564 1270,4252 Z"/>
 <path fill="rgb(255,66,14)" stroke="none" d="M 13609,4252 L 14558,4252 14558,2576 13609,2576 13609,4252 Z"/>
 <path fill="rgb(255,66,14)" stroke="none" d="M 10761,4252 L 11710,4252 11710,1305 10761,1305 10761,4252 Z"/>
 <path fill="rgb(255,66,14)" stroke="none" d="M 7915,4252 L 8864,4252 8864,3275 7915,3275 7915,4252 Z"/>
 <path fill="rgb(255,66,14)" stroke="none" d="M 5067,4252 L 6016,4252 6016,3555 5067,3555 5067,4252 Z"/>
 <path fill="rgb(255,66,14)" stroke="none" d="M 2219,4252 L 3169,4252 3169,826 2219,826 2219,4252 Z"/>
 <text class="TextShape"><tspan class="TextParagraph" font-family="Liberation Sans, sans-serif" font-size="353px" font-weight="400"><tspan class="TextPosition" x="1584" y="4820"><tspan fill="rgb(0,0,0)" stroke="none">spinlock</tspan></tspan></tspan></text>
 <text class="TextShape"><tspan class="TextParagraph" font-family="Liberation Sans, sans-serif" font-size="353px" font-weight="400"><tspan class="TextPosition" x="4419" y="4820"><tspan fill="rgb(0,0,0)" stroke="none">tinySTM</tspan></tspan></tspan></text>
 <text class="TextShape"><tspan class="TextParagraph" font-family="Liberation Sans, sans-serif" font-size="353px" font-weight="400"><tspan class="TextPosition" x="6644" y="4820"><tspan fill="rgb(0,0,0)" stroke="none">GCC transaction</tspan></tspan></tspan></text>
 <text class="TextShape"><tspan class="TextParagraph" font-family="Liberation Sans, sans-serif" font-size="353px" font-weight="400"><tspan class="TextPosition" x="10047" y="4820"><tspan fill="rgb(0,0,0)" stroke="none">Intel HLE</tspan></tspan></tspan></text>
 <text class="TextShape"><tspan class="TextParagraph" font-family="Liberation Sans, sans-serif" font-size="353px" font-weight="400"><tspan class="TextPosition" x="12869" y="4820"><tspan fill="rgb(0,0,0)" stroke="none">Intel RTM</tspan></tspan></tspan></text>
 <text class="TextShape"><tspan class="TextParagraph" font-family="Liberation Sans, sans-serif" font-size="353px" font-weight="400"><tspan class="TextPosition" x="361" y="4373"><tspan fill="rgb(0,0,0)" stroke="none">0</tspan></tspan></tspan></text>
 <text class="TextShape"><tspan class="TextParagraph" font-family="Liberation Sans, sans-serif" font-size="353px" font-weight="400"><tspan class="TextPosition" x="361" y="3933"><tspan fill="rgb(0,0,0)" stroke="none">1</tspan></tspan></tspan></text>
 <text class="TextShape"><tspan class="TextParagraph" font-family="Liberation Sans, sans-serif" font-size="353px" font-weight="400"><tspan class="TextPosition" x="361" y="3494"><tspan fill="rgb(0,0,0)" stroke="none">2</tspan></tspan></tspan></text>
 <text class="TextShape"><tspan class="TextParagraph" font-family="Liberation Sans, sans-serif" font-size="353px" font-weight="400"><tspan class="TextPosition" x="361" y="3054"><tspan fill="rgb(0,0,0)" stroke="none">3</tspan></tspan></tspan></text>
 <text class="TextShape"><tspan class="TextParagraph" font-family="Liberation Sans, sans-serif" font-size="353px" font-weight="400"><tspan class="TextPosition" x="361" y="2615"><tspan fill="rgb(0,0,0)" stroke="none">4</tspan></tspan></tspan></text>
 <text class="TextShape"><tspan class="TextParagraph" font-family="Liberation Sans, sans-serif" font-size="353px" font-weight="400"><tspan class="TextPosition" x="361" y="2175"><tspan fill="rgb(0,0,0)" stroke="none">5</tspan></tspan></tspan></text>
 <text class="TextShape"><tspan class="TextParagraph" font-family="Liberation Sans, sans-serif" font-size="353px" font-weight="400"><tspan class="TextPosition" x="361" y="1736"><tspan fill="rgb(0,0,0)" stroke="none">6</tspan></tspan></tspan></text>
 <text class="TextShape"><tspan class="TextParagraph" font-family="Liberation Sans, sans-serif" font-size="353px" font-weight="400"><tspan class="TextPosition" x="361" y="1296"><tspan fill="rgb(0,0,0)" stroke="none">7</tspan></tspan></tspan></text>
 <text class="TextShape"><tspan class="TextParagraph" font-family="Liberation Sans, sans-serif" font-size="353px" font-weight="400"><tspan class="TextPosition" x="361" y="857"><tspan fill="rgb(0,0,0)" stroke="none">8</tspan></tspan></tspan></text>
 <text class="TextShape"><tspan class="TextParagraph" font-family="Liberation Sans, sans-serif" font-size="353px" font-weight="400"><tspan class="TextPosition" x="361" y="418"><tspan fill="rgb(0,0,0)" stroke="none">9</tspan></tspan></tspan></text>
 <path fill="rgb(0,69,134)" stroke="none" d="M 15615,2356 L 15509,2356 15509,2145 15720,2145 15720,2356 15615,2356 Z"/>
 <path fill="rgb(255,66,14)" stroke="none" d="M 15615,2853 L 15509,2853 15509,2642 15720,2642 15720,2853 15615,2853 Z"/>
 <text class="TextShape"><tspan class="TextParagraph" font-family="Liberation Sans, sans-serif" font-size="353px" font-weight="400"><tspan class="TextPosition" x="15820" y="2370"><tspan fill="rgb(0,0,0)" stroke="none">I5 (STM)</tspan></tspan></tspan></text>
 <text class="TextShape"><tspan class="TextParagraph" font-family="Liberation Sans, sans-serif" font-size="353px" font-weight="400"><tspan class="TextPosition" x="15820" y="2867"><tspan fill="rgb(0,0,0)" stroke="none">Xeon (HTM)</tspan></tspan></tspan></text>
</svg>